<?xml version="1.0" encoding="UTF-8" standalone="no" ?><svg width="400" height="346.875" viewBox="0 0 128 111" xmlns="http://www.w3.org/2000/svg"><g fill="rgb(47,9,149)" stroke="none"><rect x="0" y="0" width="128" height="111" /></g><g fill="rgb(31,0,59)" stroke="none"><path d="M40 0h1v1H40ZM40 1h1v1H40ZM41 0h1v1H41ZM41 1h1v1H41ZM39 0h1v1H39ZM39 1h1v1H39ZM39 2h1v1H39ZM43 0h1v1H43ZM43 1h1v1H43ZM43 2h1v1H43ZM43 3h1v1H43ZM44 1h1v1H44ZM42 3h1v1H42ZM42 2h1v1H42ZM45 2h1v1H45ZM45 0h1v1H45ZM45 1h1v1H45ZM42 4h1v1H42ZM41 2h1v1H41ZM41 3h1v1H41ZM41 4h1v1H41ZM42 0h1v1H42ZM42 1h1v1H42ZM40 4h1v1H40ZM46 2h1v1H46ZM44 2h1v1H44ZM38 1h1v1H38ZM37 1h1v1H37ZM46 3h1v1H46ZM37 6h1v1H37ZM35 5h8v1H35ZM35 1h1v1H35ZM34 1h1v1H34ZM36 0h1v1H36ZM35 0h1v1H35ZM28 1h1v1H28ZM24 1h4v1H24ZM29 1h5v1H29ZM36 1h1v1H36ZM46 1h2v1H46ZM22 2h12v1H22ZM35 2h1v1H35ZM30 0h5v1H30ZM37 0h2v1H37ZM44 0h1v1H44ZM46 0h1v1H46ZM28 0h2v1H28ZM27 0h1v1H27ZM26 0h1v1H26ZM34 2h1v1H34ZM36 3h1v1H36ZM36 2h1v1H36ZM37 4h1v1H37ZM43 4h1v1H43ZM45 4h1v1H45ZM44 4h1v1H44ZM46 4h2v1H46ZM35 4h2v1H35ZM37 2h2v1H37ZM40 2h1v1H40ZM47 2h1v1H47ZM33 3h1v1H33ZM24 3h1v1H24ZM30 3h3v1H30ZM34 3h1v1H34ZM21 4h1v1H21ZM18 4h3v1H18ZM22 4h1v1H22ZM22 3h1v1H22ZM35 3h1v1H35ZM37 3h4v1H37ZM44 3h2v1H44ZM47 3h1v1H47ZM23 3h1v1H23ZM21 3h1v1H21ZM20 3h1v1H20ZM11 1h1v1H11ZM13 1h1v1H13ZM13 0h2v1H13ZM12 2h2v1H12ZM15 2h1v1H15ZM14 2h1v1H14ZM16 2h3v1H16ZM11 3h1v1H11ZM10 2h2v1H10ZM9 2h1v1H9ZM8 2h1v1H8ZM7 3h1v1H7ZM7 2h1v1H7ZM15 1h1v1H15ZM9 1h2v1H9ZM12 1h1v1H12ZM14 1h1v1H14ZM5 6h1v1H5ZM4 6h1v1H4ZM7 5h1v1H7ZM7 6h1v1H7ZM6 6h1v1H6ZM5 5h1v1H5ZM6 4h1v1H6ZM6 5h1v1H6ZM8 4h1v1H8ZM8 5h1v1H8ZM4 8h3v1H4ZM4 7h4v1H4ZM5 4h1v1H5ZM7 4h1v1H7ZM9 4h2v1H9ZM6 3h1v1H6ZM8 3h3v1H8ZM12 3h2v1H12ZM16 4h1v1H16ZM14 4h2v1H14ZM14 3h6v1H14ZM4 10h2v1H4ZM4 9h2v1H4ZM4 13h1v1H4ZM4 15h1v1H4ZM4 14h1v1H4ZM5 12h1v1H5ZM4 12h1v1H4ZM4 11h2v1H4Z" /><path d="M75 109V110H77V111H87V109H88V106H86V107H85V104H82V103H80V102H79V100H77V98H76V97H75V96H73V95H72V96H71V98H69V99H68V100H69V107H68V108H67V109H64V110H62V111H72V110H73V109H74Z" /><path d="M57 7h1v1H57ZM57 8h1v1H57ZM56 8h1v1H56ZM58 6h1v1H58ZM58 7h1v1H58ZM56 6h2v1H56ZM57 9h1v1H57ZM57 1h1v1H57ZM55 2h3v1H55ZM55 1h2v1H55ZM58 4h1v1H58ZM58 3h1v1H58ZM59 4h1v1H59ZM57 3h1v1H57ZM57 4h1v1H57ZM57 5h1v1H57ZM58 2h1v1H58ZM56 4h1v1H56ZM62 0h1v1H62ZM61 0h1v1H61ZM63 0h2v1H63ZM61 1h1v1H61ZM59 1h1v1H59ZM59 0h1v1H59ZM60 1h1v1H60ZM59 2h1v1H59ZM55 7h2v1H55ZM57 0h2v1H57ZM58 1h1v1H58ZM53 7h1v1H53ZM53 6h1v1H53ZM51 6h2v1H51ZM54 6h2v1H54ZM58 5h1v1H58ZM52 5h1v1H52ZM54 5h3v1H54ZM53 8h3v1H53ZM50 7h3v1H50ZM54 7h1v1H54ZM63 1h1v1H63ZM62 2h1v1H62ZM62 1h1v1H62ZM52 1h2v1H52ZM51 1h1v1H51ZM54 1h1v1H54ZM50 2h1v1H50ZM49 1h2v1H49ZM50 0h1v1H50ZM52 0h4v1H52ZM60 0h1v1H60ZM65 0h1v1H65ZM67 2h1v1H67ZM68 1h1v1H68ZM68 2h2v1H68ZM66 1h2v1H66ZM69 1h5v1H69ZM75 1h1v1H75ZM74 1h1v1H74ZM76 1h4v1H76ZM67 0h1v1H67ZM66 0h1v1H66ZM68 0h10v1H68ZM68 3h1v1H68ZM56 3h1v1H56ZM60 3h1v1H60ZM59 3h1v1H59ZM69 3h1v1H69ZM61 9h5v1H61ZM63 8h1v1H63ZM65 8h1v1H65ZM62 10h1v1H62ZM60 9h1v1H60ZM60 10h1v1H60ZM61 8h2v1H61ZM66 10h1v1H66ZM65 10h1v1H65ZM64 10h1v1H64ZM60 8h1v1H60ZM64 8h1v1H64ZM73 5h1v1H73ZM68 7h1v1H68ZM67 6h1v1H67ZM66 7h2v1H66ZM68 6h1v1H68ZM69 5h2v1H69ZM69 6h4v1H69ZM68 5h1v1H68ZM71 5h2v1H71ZM79 5h1v1H79ZM80 6h1v1H80ZM80 5h5v1H80ZM78 5h1v1H78ZM83 4h1v1H83ZM74 4h9v1H74ZM84 4h2v1H84ZM75 5h1v1H75ZM74 6h1v1H74ZM74 5h1v1H74ZM73 6h1v1H73ZM75 6h1v1H75ZM72 4h1v1H72ZM66 8h2v1H66ZM69 8h1v1H69ZM68 8h1v1H68ZM70 8h2v1H70ZM74 7h1v1H74ZM79 6h1v1H79ZM81 6h3v1H81ZM73 7h1v1H73ZM69 7h4v1H69ZM73 3h1v1H73ZM73 4h1v1H73ZM71 4h1v1H71ZM73 8h1v1H73ZM70 4h1v1H70ZM85 3h3v1H85ZM84 3h1v1H84ZM81 3h1v1H81ZM70 3h3v1H70ZM74 3h7v1H74ZM55 4h1v1H55ZM68 4h2v1H68ZM54 3h2v1H54ZM86 2h3v1H86ZM79 2h2v1H79ZM78 2h1v1H78ZM60 2h1v1H60ZM52 3h1v1H52ZM51 3h1v1H51ZM51 2h4v1H51ZM61 2h1v1H61ZM77 2h1v1H77ZM70 2h7v1H70ZM50 3h1v1H50ZM72 8h1v1H72ZM58 9h2v1H58ZM66 9h3v1H66ZM70 9h2v1H70ZM55 9h2v1H55ZM63 11h1v1H63ZM61 12h7v1H61ZM64 11h1v1H64ZM56 12h1v1H56ZM55 11h8v1H55ZM65 11h4v1H65ZM56 10h4v1H56ZM61 10h1v1H61ZM63 10h1v1H63ZM67 10h2v1H67Z" /><path d="M109 108H107V109H106V110H104V111H102V110H96V111H91V108H96V107H102V106H104V105H106V104H109V103H111V104H113V108H112V111H109V109Z" /><path d="M128 37V39H127V40H128V46H127V47H126V48H125V50H124V51H122V49H123V47H124V44H125V38H122V37H120V35H119V33H120V32H121V31H122V28H123V27H124V24H125V23H127V21H128V35H127V36H128Z" /><path d="M106 84H107V83H108V85H106Z" /><path d="M3 64V61H4V59H5V58H6V57H7V55H8V53H10V50H11V49H12V48H13V47H14V45H15V47H16V48H18V49H17V51H15V53H13V54H12V56H11V59H8V60H9V61H10V63H9V64H7V65H6V66H5V68H3V70H2V71H1V72H0V68H1V66H2V64Z" /><path d="M5 100H7V98H8V97H9V95H10V93H11V91H13V90H15V92H14V94H13V96H11V97H10V98H11V100H14V101H18V102H21V103H20V104H19V105H18V106H14V107H13V108H12V109H11V110H10V109H9V108H6V107H4V102H5V101Z" /><path d="M127 105V111H125V106H124V105H123V103H120V102H119V100H120V98H121V97H122V96H123V94H124V92H125V90H126V89H127V86H128V93H127V94H126V95H125V97H123V99H122V100H124V101H125V103H126V104H127Z" /><path d="M123 70V71H124V72H125V73H126V74H127V75H128V73H127V71H126V70H125V68H124V65H123V62H121V60H123V59H119V60H118V61H120V63H119V65H120V67H121V68H122V70Z" /><path d="M106 11H107V13H105V11H104V8H105V9H106V10Z" /><path d="M38 107H42V108H44V109H46V110H47V111H44V110H42V109H35V108H34V107H37Z" /><path d="M59 110H61V111H56V110H57V109H59Z" /><path d="M57 61H56V62H57V63H58V62H59V60H57Z" /><path d="M59 88V89H61V85H59V86H58V87H57V88H58Z" /><path d="M75 73H76V74H75V75H74V76H73V74H74V73Z" /><path d="M56 74H57V75H54V74H55Z" /><path d="M77 79V80H84V78H83V76H78V75H77V76H76V77H75V78H76V79Z" /><path d="M16 81H17V82H18V86H17V85H15V82H16Z" /><path d="M58 75H60V76H58Z" /><path d="M46 75H47V76H46Z" /><path d="M0 0H1V1H0Z" /><path d="M45 61H46V62H45Z" /><path d="M121 57V58H122V54H120V56H119V57H120Z" /><path d="M6 68H7V69H6Z" /><path d="M90 107V108H91V106H90Z" /><path d="M62 86H64V87H62Z" /><path d="M13 87H14V88H13Z" /><path d="M36 88H37V89H36Z" /><path d="M11 88H12V89H11Z" /><path d="M9 90H10V91H9Z" /><path d="M89 1H92V2H89Z" /><path d="M92 0H94V1H92Z" /><path d="M110 12V13H111V11H110V10H109V11H108V12H109Z" /><path d="M108 9V10H109V8H108Z" /><path d="M18 46V47H22V46H23V47H24V46H25V43H24V45H22V43H20V42H19V43H16V45H17V46Z" /><path d="M20 48H21V49H20Z" /><path d="M0 44V46H1V45H2V43H3V36H2V38H1V42H0V43Z" /><path d="M119 53H120V54H119Z" /><path d="M122 53H123V54H122Z" /></g><g fill="rgb(104,1,116)" stroke="none"><path d="M122 0h6v1H122ZM122 1h6v1H122ZM122 2h6v1H122ZM122 3h6v1H122ZM122 4h6v1H122ZM122 5h3v1H122ZM127 5h1v1H127ZM127 6h1v1H127ZM122 6h2v1H122ZM122 7h2v1H122ZM126 5h1v1H126ZM124 6h1v1H124ZM120 0h1v1H120ZM120 1h1v1H120ZM120 2h1v1H120ZM120 3h1v1H120ZM120 4h1v1H120ZM119 0h1v1H119ZM119 1h1v1H119ZM119 2h1v1H119ZM119 3h1v1H119ZM119 4h1v1H119ZM121 0h1v1H121ZM121 1h1v1H121ZM121 2h1v1H121ZM121 3h1v1H121ZM121 4h1v1H121ZM126 6h1v1H126ZM124 7h1v1H124ZM127 7h1v1H127ZM122 9h2v1H122ZM122 10h1v1H122ZM122 8h1v1H122ZM118 1h1v1H118ZM118 3h1v1H118ZM118 4h1v1H118ZM117 1h1v1H117ZM117 3h1v1H117ZM117 4h1v1H117ZM126 7h1v1H126ZM125 7h1v1H125ZM114 0h1v1H114ZM114 1h1v1H114ZM114 2h1v1H114ZM114 3h1v1H114ZM114 4h1v1H114ZM114 5h1v1H114ZM111 0h1v1H111ZM111 1h1v1H111ZM111 2h1v1H111ZM111 3h1v1H111ZM111 4h1v1H111ZM112 0h1v1H112ZM112 1h1v1H112ZM112 2h1v1H112ZM112 3h1v1H112ZM112 4h1v1H112ZM113 0h1v1H113ZM113 1h1v1H113ZM113 2h1v1H113ZM113 3h1v1H113ZM113 4h1v1H113ZM115 0h1v1H115ZM115 1h1v1H115ZM115 2h1v1H115ZM115 3h1v1H115ZM115 4h1v1H115ZM116 3h1v1H116ZM116 4h1v1H116ZM125 6h1v1H125ZM123 8h1v1H123ZM120 5h1v1H120ZM119 7h1v1H119ZM119 6h1v1H119ZM120 8h1v1H120ZM120 7h2v1H120ZM112 5h1v1H112ZM117 5h1v1H117ZM111 5h1v1H111ZM113 5h1v1H113ZM115 5h1v1H115ZM116 6h1v1H116ZM116 5h1v1H116ZM118 5h2v1H118ZM121 5h1v1H121ZM125 5h1v1H125ZM115 7h1v1H115ZM113 7h1v1H113ZM112 7h1v1H112ZM114 7h1v1H114ZM117 7h1v1H117ZM116 7h1v1H116ZM118 7h1v1H118ZM112 6h4v1H112ZM117 6h2v1H117ZM120 6h2v1H120ZM116 1h1v1H116ZM117 0h1v1H117ZM116 0h1v1H116ZM118 0h1v1H118ZM116 2h3v1H116ZM114 9h8v1H114ZM126 9h1v1H126ZM125 9h1v1H125ZM124 9h1v1H124ZM127 9h1v1H127ZM113 8h7v1H113ZM121 8h1v1H121ZM124 8h1v1H124ZM126 8h1v1H126ZM125 8h1v1H125ZM127 8h1v1H127ZM121 11h2v1H121ZM123 12h1v1H123ZM123 11h2v1H123ZM125 12h1v1H125ZM125 13h2v1H125ZM125 11h3v1H125ZM114 10h1v1H114ZM114 12h4v1H114ZM115 13h1v1H115ZM115 11h3v1H115ZM115 10h1v1H115ZM127 10h1v1H127ZM118 10h1v1H118ZM120 10h2v1H120ZM123 10h1v1H123ZM125 10h2v1H125Z" /><path d="M127 14H128V15H127Z" /><path d="M121 14H122V15H121Z" /><path d="M119 11H120V12H119Z" /></g><g fill="rgb(15,1,27)" stroke="none"><path d="M62 8H60V9H58V8H59V5H60V4H61V3H63V2H64V1H66V2H67V3H68V6H67V7H66V8H63Z" /><path d="M0 109V111H16V110H10V109H9V108H6V107H4V102H3V101H4V100H5V97H4V96H3V95H2V93H1V91H0V108Z" /><path d="M0 8V28H2V24H1V22H2V15H3V14H4V6H5V4H6V3H7V2H9V1H13V0H1V1H0V7Z" /><path d="M127 54h1v1H127ZM127 53h1v1H127ZM127 52h1v1H127ZM127 51h1v1H127ZM123 53h4v1H123ZM125 52h1v1H125ZM126 61h1v1H126ZM126 62h1v1H126ZM127 58h1v1H127ZM126 58h1v1H126ZM127 59h1v1H127ZM127 60h1v1H127ZM127 61h1v1H127ZM127 62h1v1H127ZM127 63h1v1H127ZM126 64h2v1H126ZM127 56h1v1H127ZM127 57h1v1H127ZM126 57h1v1H126ZM125 59h1v1H125ZM125 58h1v1H125ZM125 63h2v1H125ZM127 66h1v1H127ZM127 67h1v1H127ZM127 65h1v1H127ZM123 60h4v1H123ZM123 59h2v1H123ZM126 59h1v1H126ZM123 62h3v1H123ZM123 61h3v1H123ZM125 57h1v1H125ZM123 56h1v1H123ZM122 57h3v1H122ZM126 56h1v1H126ZM122 56h1v1H122ZM124 56h2v1H124ZM124 58h1v1H124ZM123 58h1v1H123ZM122 58h1v1H122ZM124 67h3v1H124ZM126 66h1v1H126ZM124 65h1v1H124ZM124 66h2v1H124ZM126 69h1v1H126ZM126 70h2v1H126ZM127 72h1v1H127ZM127 71h1v1H127ZM127 69h1v1H127ZM125 69h1v1H125ZM127 68h1v1H127ZM125 68h2v1H125ZM124 64h1v1H124ZM123 64h1v1H123ZM125 64h1v1H125ZM123 63h2v1H123ZM125 65h2v1H125ZM122 55h2v1H122ZM126 55h2v1H126ZM124 54h1v1H124ZM122 54h2v1H122ZM126 54h1v1H126ZM126 52h1v1H126ZM124 52h1v1H124ZM126 49h2v1H126ZM125 48h3v1H125ZM127 46h1v1H127ZM127 47h1v1H127ZM126 47h1v1H126ZM127 50h1v1H127ZM124 50h3v1H124ZM125 49h1v1H125ZM123 51h1v1H123ZM123 52h1v1H123ZM124 51h3v1H124Z" /><path d="M126 103H125V101H124V100H122V99H123V97H125V95H126V94H127V93H128V111H127V104H126Z" /><path d="M74 109H75V110H77V111H72V110H73V109Z" /><path d="M2 32V38H1V40H0V30H1V31H2Z" /><path d="M32 110H31V111H44V110H42V109H35V108H33V109H32Z" /><path d="M107 109H106V110H104V111H109V108H107Z" /><path d="M90 0H92V1H89V2H86V3H84V4H82V3H81V2H80V1H78V0H89Z" /><path d="M7 69V70H8V67H9V64H7V68Z" /><path d="M96 110H102V111H96Z" /><path d="M87 110V111H89V110H88V109H87Z" /><path d="M6 95H7V96H6Z" /><path d="M19 2V3H22V2H24V1H26V0H15V1H16V2H18Z" /><path d="M47 0H50V1H47Z" /><path d="M56 0H57V1H56Z" /></g><g fill="rgb(215,199,234)" stroke="none"><path d="M81 18H82V19H84V20H81V19H80V18Z" /><path d="M20 35H21V36H18V34H20Z" /><path d="M111 90V91H113V90H112V88H110V89H111Z" /><path d="M69 14H71V15H72V16H70V15H68V14Z" /><path d="M15 86H16V87H15Z" /><path d="M14 27H15V29H13V28H14Z" /><path d="M16 36H18V37H17V38H15V44H14V41H13V38H14V37H15V35H16Z" /><path d="M115 18H114V19H112V21H113V23H114V22H115V23H116V22H117V21H118V20H117V19H118V18H116V17H115Z" /><path d="M101 41V42H102V40H101Z" /><path d="M99 5h1v1H99ZM97 5h2v1H97ZM99 4h1v1H99ZM98 4h1v1H98ZM91 5h3v1H91ZM91 4h3v1H91ZM95 5h1v1H95ZM96 4h1v1H96ZM95 4h1v1H95ZM94 4h1v1H94ZM91 7h3v1H91ZM92 6h2v1H92ZM95 7h1v1H95ZM95 6h2v1H95ZM94 3h1v1H94ZM92 3h1v1H92ZM95 3h5v1H95ZM92 2h1v1H92ZM94 1h1v1H94ZM94 2h7v1H94ZM92 10h1v1H92ZM90 9h4v1H90ZM91 8h4v1H91ZM91 19h1v1H91ZM90 19h1v1H90ZM89 18h4v1H89ZM87 16h6v1H87ZM87 15h4v1H87ZM92 15h1v1H92ZM89 17h1v1H89ZM91 17h3v1H91ZM90 14h1v1H90ZM89 14h1v1H89ZM88 14h1v1H88ZM87 14h1v1H87ZM87 12h1v1H87ZM87 13h1v1H87ZM89 12h1v1H89ZM89 13h2v1H89ZM86 11h2v1H86ZM89 11h1v1H89ZM91 12h1v1H91ZM91 11h1v1H91ZM90 11h1v1H90ZM92 11h1v1H92ZM87 10h1v1H87ZM90 10h2v1H90Z" /><path d="M119 20V21H118V22H120V21H122V20H124V19H125V17H122V19H121V20H120V19H119Z" /><path d="M88 105V107H89V108H90V106H89V104H88Z" /><path d="M98 73V74H97V76H98V75H99V73H100V70H99V72H98Z" /><path d="M26 74H27V75H25V74H24V73H26Z" /><path d="M59 74H61V75H59Z" /><path d="M45 74H47V75H45Z" /><path d="M23 71V72H25V71H24V69H23V70Z" /><path d="M90 71H91V72H90Z" /><path d="M51 73H58V74H49V73H50Z" /><path d="M94 79V80H93V82H92V84H94V81H95V80H96V79H95V78H94Z" /><path d="M97 79H98V80H97Z" /><path d="M19 80H20V82H19V81Z" /><path d="M30 80V81H31V82H32V83H33V81H32V80H31V79H30V78H29V77H27V78H28V79H29V80Z" /><path d="M42 80H43V82H42V81Z" /><path d="M44 81H45V82H44Z" /><path d="M119 81H120V83H119V82Z" /><path d="M70 80H71V81H70Z" /><path d="M41 76H43V77H41Z" /><path d="M26 76H27V77H26Z" /><path d="M34 76H35V77H34Z" /><path d="M96 76H97V78H95V77H96Z" /><path d="M100 76H101V77H100Z" /><path d="M63 76H65V77H63Z" /><path d="M73 76H74V77H73Z" /><path d="M61 75H63V76H61Z" /><path d="M43 75H45V76H43Z" /><path d="M35 77H39V78H35Z" /><path d="M40 77H41V78H40Z" /><path d="M123 76H124V77H123Z" /><path d="M71 77H72V78H66V77H70Z" /><path d="M102 60V62H103V56H102V59Z" /><path d="M116 60H118V61H116Z" /><path d="M55 61H56V62H55Z" /><path d="M20 60V61H21V58H20V59Z" /><path d="M101 62H102V64H101V63Z" /><path d="M21 63V64H22V62H21Z" /><path d="M107 61H108V62H107Z" /><path d="M45 59H47V60H45Z" /><path d="M14 59H15V60H14Z" /><path d="M56 59H57V60H56Z" /><path d="M120 58H121V59H120Z" /><path d="M4 68H5V69H4Z" /><path d="M100 67H101V68H100Z" /><path d="M22 68V69H23V66H22V65H21V67H22Z" /><path d="M101 66V67H102V65H101Z" /><path d="M100 69H101V70H100Z" /><path d="M51 64H52V65H51Z" /><path d="M16 66H18V67H16Z" /><path d="M34 100V105H35V100H36V97H35V93H36V89H34V99Z" /><path d="M102 100V101H103V98H102V99H101V100Z" /><path d="M88 100V101H89V99H90V96H88V99Z" /><path d="M97 99V100H98V98H97Z" /><path d="M110 96H111V97H110Z" /><path d="M107 95H108V96H107Z" /><path d="M114 95H115V96H114Z" /><path d="M106 98H107V99H105V98H104V97H106Z" /><path d="M116 98H117V99H116Z" /><path d="M89 110H90V111H89Z" /><path d="M99 103V104H100V102H99Z" /><path d="M91 85H93V86H91Z" /><path d="M40 86H41V87H40Z" /><path d="M34 86V87H35V85H34V84H35V82H34V83H33V86Z" /><path d="M43 86H45V87H44V88H43V87Z" /><path d="M51 88H54V89H57V90H49V89H50V88Z" /><path d="M46 88V89H47V88H48V87H46Z" /><path d="M63 88V89H64V88H66V87H63Z" /><path d="M14 88H16V89H14V90H13V88Z" /><path d="M91 88H92V89H90V87H91Z" /><path d="M125 87H126V88H125Z" /><path d="M36 83H37V85H35V84H36Z" /><path d="M39 83H40V85H39V86H38V84H39Z" /><path d="M125 82H126V83H125Z" /><path d="M80 83H81V84H80Z" /><path d="M99 82H100V83H99Z" /><path d="M81 82H82V83H81Z" /><path d="M123 84H124V85H123Z" /><path d="M41 85H42V86H41Z" /><path d="M112 83H114V84H112Z" /><path d="M73 84H74V85H73Z" /><path d="M66 93H67V94H66Z" /><path d="M108 93H109V94H108Z" /><path d="M16 93H17V94H16Z" /><path d="M69 92V93H70V91H69V90H68V92Z" /><path d="M89 92V93H91V91H89Z" /><path d="M110 92H111V93H110Z" /><path d="M109 94H110V95H109Z" /><path d="M115 94H116V95H115Z" /><path d="M19 89H20V90H18V89Z" /><path d="M10 89H11V90H10Z" /><path d="M58 89H62V90H58Z" /><path d="M65 89H66V90H65Z" /><path d="M93 19h2v1H93ZM94 18h3v1H94ZM97 19h1v1H97ZM97 18h2v1H97ZM99 19h5v1H99ZM102 18h1v1H102ZM104 18h6v1H104ZM103 18h1v1H103ZM101 18h1v1H101ZM99 18h1v1H99ZM98 21h5v1H98ZM102 20h1v1H102ZM101 20h1v1H101ZM93 21h3v1H93ZM94 20h7v1H94ZM103 16h6v1H103ZM102 15h2v1H102ZM103 17h3v1H103ZM107 17h1v1H107ZM100 16h1v1H100ZM100 17h1v1H100ZM99 17h1v1H99ZM96 17h2v1H96ZM104 21h1v1H104ZM103 21h1v1H103ZM105 21h2v1H105ZM106 22h2v1H106ZM99 22h3v1H99ZM107 20h1v1H107ZM107 21h2v1H107ZM109 22h1v1H109ZM109 21h1v1H109ZM110 19h1v1H110ZM110 20h1v1H110ZM110 21h1v1H110ZM111 22h1v1H111ZM111 21h1v1H111ZM107 23h1v1H107ZM102 14h2v1H102Z" /><path d="M19 20H20V21H19Z" /><path d="M40 19H41V20H40Z" /><path d="M8 19H9V20H8Z" /><path d="M18 19V20H19V18H18Z" /><path d="M37 21H38V22H37Z" /><path d="M86 21H87V22H86Z" /><path d="M39 20H40V21H39Z" /><path d="M84 20H86V21H84Z" /><path d="M46 16H47V17H45V16Z" /><path d="M73 16V17H75V15H73Z" /><path d="M20 16H21V15H20V13H21V12H22V10H23V11H24V12H23V16H24V17H25V18H23V17H20Z" /><path d="M25 16h2v1H25ZM26 15h3v1H26ZM28 13h2v1H28ZM29 12h1v1H29ZM28 14h2v1H28ZM38 8h1v1H38ZM37 8h1v1H37ZM33 8h4v1H33ZM30 10h1v1H30ZM28 10h2v1H28ZM31 10h1v1H31ZM30 9h3v1H30ZM33 10h1v1H33ZM33 9h2v1H33ZM35 10h1v1H35ZM35 9h3v1H35ZM29 9h1v1H29ZM29 11h2v1H29ZM32 12h1v1H32ZM31 12h1v1H31ZM31 11h4v1H31Z" /><path d="M112 16H113V17H112Z" /><path d="M120 16H121V18H118V17H120Z" /><path d="M76 16H78V17H80V18H77V17H76Z" /><path d="M98 16V17H99V14H97V15H98Z" /><path d="M94 16H96V17H94Z" /><path d="M47 15H50V14H54V13H66V14H67V15H60V14H58V15H51V16H47Z" /><path d="M122 15H123V16H122Z" /><path d="M2 16H3V17H2Z" /><path d="M119 15H120V16H119Z" /><path d="M42 18H43V19H42Z" /><path d="M43 17H45V18H43Z" /><path d="M9 17H10V18H9Z" /><path d="M41 26H49V28H43V29H38V28H37V27H36V26H40Z" /><path d="M25 26H26V27H32V28H27V29H26V28H24V26Z" /><path d="M16 26H17V25H19V24H20V26H23V28H22V27H18V28H17V27H15V26Z" /><path d="M92 25H93V26H92Z" /><path d="M23 28H24V29H23Z" /><path d="M34 27H36V28H34Z" /><path d="M85 27H86V28H85Z" /><path d="M88 27H89V29H88V28Z" /><path d="M88 22H89V23H88Z" /><path d="M97 22H98V23H97Z" /><path d="M17 23H18V24H17Z" /><path d="M18 22H19V23H18Z" /><path d="M36 22H37V23H36Z" /><path d="M96 24V25H97V23H96Z" /><path d="M105 23H106V24H105Z" /><path d="M89 23H90V24H89Z" /><path d="M14 24H16V25H14Z" /><path d="M13 6H14V7H13Z" /><path d="M17 6V7H18V5H17Z" /><path d="M89 7V8H88V10H89V9H90V7H91V6H88V7Z" /><path d="M41 8H42V9H41Z" /><path d="M53 4H54V5H53Z" /><path d="M48 2H49V3H48Z" /><path d="M14 13H15V15H14V14Z" /><path d="M18 12H19V13H18Z" /><path d="M93 14H94V15H93Z" /><path d="M105 14H106V15H105Z" /><path d="M118 14H119V15H118Z" /><path d="M24 10V11H27V10H26V9H23V10Z" /><path d="M12 10H13V11H12Z" /><path d="M27 9H28V10H27Z" /><path d="M16 9H17V10H16Z" /><path d="M51 11H52V12H51Z" /><path d="M102 11H103V12H102Z" /><path d="M28 47V49H29V46H28Z" /><path d="M17 47H18V48H17Z" /><path d="M69 47H70V50H69V48Z" /><path d="M16 46H17V47H16Z" /><path d="M106 46H107V47H106Z" /><path d="M83 46V47H84V44H83V45Z" /><path d="M105 47H106V48H105Z" /><path d="M108 43H109V44H108Z" /><path d="M69 43H70V45H69V44Z" /><path d="M34 44H35V45H34Z" /><path d="M15 44H16V45H15Z" /><path d="M82 42V43H83V42H84V40H80V41H79V42H81Z" /><path d="M62 43H63V45H62V44Z" /><path d="M29 43H30V44H29Z" /><path d="M79 45V46H80V45H81V44H79Z" /><path d="M38 45H39V46H38Z" /><path d="M107 45V46H108V44H107Z" /><path d="M121 44H122V45H121Z" /><path d="M108 53H109V54H108Z" /><path d="M32 54H33V55H32Z" /><path d="M74 54H75V55H73V54Z" /><path d="M78 54H80V55H78Z" /><path d="M38 54H39V55H38Z" /><path d="M54 54H55V55H54Z" /><path d="M31 53H32V54H31Z" /><path d="M80 53H81V54H80Z" /><path d="M72 53H73V54H72Z" /><path d="M117 55H118V56H117Z" /><path d="M125 55H126V56H125Z" /><path d="M116 54H117V55H116Z" /><path d="M4 55H5V56H4Z" /><path d="M35 55H38V56H35Z" /><path d="M82 50V51H83V49H82Z" /><path d="M70 50H71V52H70V51Z" /><path d="M16 51H17V52H16Z" /><path d="M29 50H30V52H29V51Z" /><path d="M40 52H41V53H40Z" /><path d="M30 52H31V53H30Z" /><path d="M71 52H72V53H71Z" /><path d="M81 52H82V53H81Z" /><path d="M121 51H122V52H121Z" /><path d="M20 33H24V32H25V33H26V34H23V35H21V34H20Z" /><path d="M11 33V34H13V37H14V32H13V29H12V30H11V32Z" /><path d="M53 32V33H54V31H52V32Z" /><path d="M26 32V33H27V32H30V31H32V30H29V31H26Z" /><path d="M105 32V33H106V31H104V30H97V31H102V32H104Z" /><path d="M107 34H109V35H107Z" /><path d="M103 34H104V35H98V34H102Z" /><path d="M23 35H24V36H23Z" /><path d="M106 33H107V34H106Z" /><path d="M38 34H39V35H38Z" /><path d="M35 30H36V31H35Z" /><path d="M36 29H38V30H36Z" /><path d="M34 29H35V30H34Z" /><path d="M27 29H28V30H27Z" /><path d="M31 40H32V41H31Z" /><path d="M71 40V41H72V39H71Z" /><path d="M58 40H59V41H58Z" /><path d="M32 39H34V40H32Z" /><path d="M36 39H37V40H36Z" /><path d="M109 41H110V42H108V40H109Z" /><path d="M41 42V43H42V41H38V42H37V43H40V42Z" /><path d="M23 42H24V43H23Z" /><path d="M30 42V43H31V41H30Z" /><path d="M70 41H71V42H70Z" /><path d="M18 37H19V38H18Z" /><path d="M108 36H110V37H109V39H108V37Z" /><path d="M105 35H106V36H105Z" /><path d="M66 38H67V39H66Z" /><path d="M73 38H74V39H73Z" /><path d="M34 38H35V39H34Z" /></g><g fill="rgb(34,35,118)" stroke="none"><path d="M8 23V28H7V37H6V38H5V36H6V33H5V26H4V23H5V18H6V16H7V15H8V18H7V21H8V22Z" /><path d="M43 9V10H42V11H41V12H38V14H41V13H43V12H49V13H50V10H49V9H47V8H46V7H45V8H43Z" /><path d="M31 23V25H34V24H35V23H36V21H35V20H34V22H31Z" /><path d="M38 35h1v1H38ZM34 35h4v1H34ZM39 35h1v1H39ZM32 35h2v1H32ZM31 33h2v1H31ZM31 32h3v1H31ZM34 33h4v1H34ZM34 32h3v1H34ZM32 34h1v1H32ZM31 34h1v1H31ZM34 34h4v1H34ZM33 31h5v1H33ZM37 36h2v1H37ZM33 37h2v1H33ZM36 37h1v1H36ZM35 37h1v1H35ZM37 37h1v1H37ZM37 38h2v1H37ZM38 37h1v1H38Z" /><path d="M44 60H45V61H44Z" /><path d="M56 63H57V64H55V63Z" /><path d="M52 46V49H53V48H55V47H54V45H53V42H52V41H50V42H51V43H52V45Z" /><path d="M69 86H66V84H67V83H71V81H72V79H74V78H76V82H75V83H73V84H72V85H71V86H70Z" /><path d="M45 46V50H47V51H45V52H49V53H48V54H46V55H45V54H44V52H42V50H43V45H42V43H44V44H45V45Z" /><path d="M95 41V44H94V42H93V43H91V44H90V43H88V41H89V39H93V40H95Z" /><path d="M66 18H64V17H63V16H62V15H65V16H66V15H67V16H71V17H68V18H67Z" /><path d="M25 41H26V42H25Z" /><path d="M52 100V101H53V107H48V108H47V107H46V108H44V109H46V110H47V111H53V110H54V109H56V108H57V107H58V106H57V101H56V100H54V99H51V100Z" /><path d="M104 73H105V74H106V76H105V77H103V75H104V74Z" /><path d="M125 74H126V75H127V78H126V79H125V78H124V77H125V76H124V75H123V74H122V73H121V72H123V73H125Z" /><path d="M17 75V82H18V80H20V76H19V75H18V74H17Z" /><path d="M53 74H54V75H53Z" /><path d="M25 71H26V72H25Z" /><path d="M57 72H59V73H56V72Z" /><path d="M52 76H55V77H51V76Z" /><path d="M126 79H127V78H128V81H125V80H126Z" /><path d="M69 81H70V82H69Z" /><path d="M79 81H82V82H80V83H79V84H78V82H79Z" /><path d="M82 80H83V81H82Z" /><path d="M49 76H50V77H47V76H48Z" /><path d="M102 77H103V78H102Z" /><path d="M12 61h1v1H12ZM12 60h1v1H12ZM14 61h1v1H14ZM14 60h1v1H14ZM13 60h1v1H13ZM13 62h2v1H13Z" /><path d="M16 61H18V64H17V62H16Z" /><path d="M9 60H10V61H9Z" /><path d="M22 63H23V64H22Z" /><path d="M11 63H12V64H11Z" /><path d="M13 58H14V59H13Z" /><path d="M17 57H18V56H19V58H17Z" /><path d="M10 59H12V60H10Z" /><path d="M15 59H16V60H15Z" /><path d="M17 68H18V69H17Z" /><path d="M21 68H22V69H21Z" /><path d="M30 68V70H31V69H32V67H30Z" /><path d="M15 67H16V68H15Z" /><path d="M20 67H21V68H20Z" /><path d="M9 70H10V71H9Z" /><path d="M24 69H25V70H24Z" /><path d="M6 69H7V70H6Z" /><path d="M54 64H55V65H54Z" /><path d="M14 64H15V65H14Z" /><path d="M13 65H14V66H13Z" /><path d="M23 66H24V67H23Z" /><path d="M18 66H19V67H18Z" /><path d="M14 66H15V67H14Z" /><path d="M15 65H16V66H15Z" /><path d="M117 99H118V100H117Z" /><path d="M21 102H28V103H31V104H32V105H33V107H32V106H28V105H26V104H23V103H21Z" /><path d="M120 96H121V97H120Z" /><path d="M77 96V97H79V95H78V93H77V91H76V95H77Z" /><path d="M10 97H11V98H10Z" /><path d="M121 95V96H122V95H123V94H124V92H125V90H126V89H124V90H123V92H122V94H121Z" /><path d="M50 98H51V99H50Z" /><path d="M11 98H12V99H11Z" /><path d="M73 86H74V85H76V87H74V89H72V88H73V87Z" /><path d="M12 87H13V88H12Z" /><path d="M78 85H80V86H78Z" /><path d="M127 85V86H128V82H126V83H127V84Z" /><path d="M62 88H63V89H62Z" /><path d="M69 87H70V88H69Z" /><path d="M9 88H10V89H9Z" /><path d="M64 85H65V86H64Z" /><path d="M35 85H36V86H35Z" /><path d="M13 84H15V85H13Z" /><path d="M80 84H81V85H80Z" /><path d="M59 93H60V94H59Z" /><path d="M67 93H68V94H67Z" /><path d="M68 92H69V93H68Z" /><path d="M70 92V93H71V91H70Z" /><path d="M74 92V93H75V91H74Z" /><path d="M66 94H67V95H66Z" /><path d="M10 90H11V91H10Z" /><path d="M61 90H62V91H59V90H60Z" /><path d="M64 90H65V91H64Z" /><path d="M36 89H37V90H36Z" /><path d="M126 88H127V89H126Z" /><path d="M75 89H76V91H75V90Z" /><path d="M68 89H69V90H68Z" /><path d="M37 20H38V21H37Z" /><path d="M59 16V17H61V15H57V16H58Z" /><path d="M34 25H36V26H34Z" /><path d="M85 22H86V23H85Z" /><path d="M91 22H92V24H91V23Z" /><path d="M29 23H30V26H28V24H29Z" /><path d="M86 23H88V24H86Z" /><path d="M77 5H78V6H77Z" /><path d="M79 7H83V8H82V10H81V9H80V8H79Z" /><path d="M106 13H107V14H106Z" /><path d="M76 9H77V10H76Z" /><path d="M38 10H39V11H38Z" /><path d="M77 8H78V9H77Z" /><path d="M83 8H84V9H83Z" /><path d="M37 11H38V12H37Z" /><path d="M19 49H20V50H19Z" /><path d="M81 43H82V44H81Z" /><path d="M29 53H30V54H29Z" /><path d="M22 53H23V54H22Z" /><path d="M54 53H55V54H54Z" /><path d="M19 55H20V56H19Z" /><path d="M50 50H52V52H50V51H48V50H49Z" /><path d="M24 51H29V53H26V52H25V53H23V52H24Z" /><path d="M20 52H21V53H20Z" /><path d="M17 40H18V41H17Z" /><path d="M23 40V41H24V39H23Z" /><path d="M41 40H43V41H41Z" /><path d="M44 40V43H45V38H46V37H45V36H44V38H43V39H44Z" /><path d="M49 39H50V40H49Z" /><path d="M83 39H84V40H82V39Z" /><path d="M100 41H101V42H100Z" /><path d="M22 42H23V43H22Z" /><path d="M24 42H25V43H24Z" /><path d="M28 42H29V43H28Z" /><path d="M15 41H17V42H15Z" /><path d="M47 38H48V39H47Z" /></g><g fill="rgb(54,46,140)" stroke="none"><path d="M8 23V28H7V32H8V33H9V32H10V29H11V28H12V24H14V23H15V22H16V20H15V21H14V20H13V19H16V17H15V16H16V15H14V14H13V16H11V15H10V18H9V16H8V18H7V19H9V21H8V22Z" /><path d="M110 72H108V73H107V74H105V73H104V71H103V72H102V70H103V68H102V65H103V63H104V61H106V62H107V63H108V62H109V64H112V66H113V68H114V70H115V74H116V73H117V72H121V73H122V74H123V75H124V76H122V77H123V78H125V79H126V80H125V81H124V83H123V82H122V80H121V75H119V76H116V78H115V79H114V81H113V82H112V80H113V77H114V74H113V73H110Z" /><path d="M45 98H46V99H51V100H52V101H53V107H47V106H46V105H43V104H40V103H38V104H36V102H41V98H40V97H37V96H39V95H41V96H42V97H44V96H45V97Z" /><path d="M37 13H38V14H37Z" /><path d="M85 40H86V42H85V41Z" /><path d="M68 51H70V53H71V54H73V55H74V56H73V57H72V59H73V60H74V61H72V60H71V59H70V58H69V52H68V53H67V54H66V50H68Z" /><path d="M48 77H50V78H49V79H48V78Z" /><path d="M21 79H23V80H24V79H25V81H23V82H22V85H21V81H20V79Z" /><path d="M84 22V23H81V25H84V24H85V21H84Z" /><path d="M40 34H38V31H37V30H43V31H44V32H45V33H44V34H43V35H40Z" /><path d="M38 39H39V40H38Z" /><path d="M30 43H31V44H30Z" /><path d="M38 52h1v1H38ZM34 54h3v1H34ZM36 53h1v1H36ZM32 53h4v1H32ZM37 53h2v1H37ZM39 52h1v1H39ZM31 52h6v1H31ZM31 49h1v1H31ZM31 50h1v1H31ZM30 51h2v1H30ZM37 47h6v1H37ZM41 46h2v1H41ZM40 46h1v1H40ZM40 49h1v1H40ZM37 49h3v1H37ZM37 48h5v1H37ZM42 49h1v1H42ZM42 48h1v1H42ZM39 44h2v1H39ZM40 45h1v1H40ZM42 45h1v1H42ZM36 50h5v1H36ZM36 51h4v1H36Z" /><path d="M76 10H78V9H79V10H81V11H83V9H84V8H85V11H84V13H82V14H83V17H85V18H84V19H83V18H81V17H79V16H80V15H81V13H79V12H78V13H76V15H73V14H72V12H74V11H76Z" /><path d="M79 55H80V56H79Z" /><path d="M73 18V19H72V21H74V18H75V17H72V18Z" /><path d="M22 89H29V90H24V91H21V90H20V89H21Z" /><path d="M32 74H33V75H32Z" /><path d="M27 74H28V75H27Z" /><path d="M24 74H25V75H24Z" /><path d="M49 74H50V75H49Z" /><path d="M96 74H97V75H96Z" /><path d="M95 71H96V72H95Z" /><path d="M100 71H101V72H100Z" /><path d="M86 71V72H84V70H86Z" /><path d="M78 70H79V71H78Z" /><path d="M98 70H99V71H98Z" /><path d="M97 72H98V73H97Z" /><path d="M46 73H47V74H46Z" /><path d="M26 73H27V74H26Z" /><path d="M23 73H24V74H23Z" /><path d="M30 73V74H31V73H32V72H30Z" /><path d="M55 72H56V73H53V72H54Z" /><path d="M70 79H71V80H70Z" /><path d="M18 80H19V82H18V81Z" /><path d="M70 81H71V82H70Z" /><path d="M84 81H85V83H83V82H84Z" /><path d="M126 81H128V82H126Z" /><path d="M85 80H86V81H85Z" /><path d="M69 80H70V81H69Z" /><path d="M25 76H26V77H25Z" /><path d="M29 76H30V77H29Z" /><path d="M31 76V77H33V76H32V75H31Z" /><path d="M99 76H100V77H99Z" /><path d="M102 76H103V77H102Z" /><path d="M74 75H75V76H74Z" /><path d="M28 75H29V76H28Z" /><path d="M101 75H102V76H100V75Z" /><path d="M98 75H99V76H98Z" /><path d="M27 78H28V79H27Z" /><path d="M101 77H102V78H101Z" /><path d="M22 77H23V78H22Z" /><path d="M26 77H27V78H26Z" /><path d="M30 77H31V78H30Z" /><path d="M33 77H34V78H33Z" /><path d="M124 76H125V77H124Z" /><path d="M85 77H86V78H85Z" /><path d="M10 61V62H11V60H10Z" /><path d="M103 60V61H104V57H103V59Z" /><path d="M100 62H101V65H100V63Z" /><path d="M101 57V59H102V55H101V56Z" /><path d="M21 57V60H22V55H21V56Z" /><path d="M14 58H15V59H14Z" /><path d="M44 59H45V60H44Z" /><path d="M47 59H48V60H47Z" /><path d="M13 59H14V60H13Z" /><path d="M56 58H58V59H56Z" /><path d="M99 67H100V68H99Z" /><path d="M16 67H18V68H16Z" /><path d="M23 67H24V68H23Z" /><path d="M79 69H80V70H79Z" /><path d="M22 70H23V71H22Z" /><path d="M101 69V70H102V68H101Z" /><path d="M5 69H6V70H5Z" /><path d="M49 63H50V64H49Z" /><path d="M12 64H13V65H12Z" /><path d="M20 64H21V65H20Z" /><path d="M22 64H23V65H22Z" /><path d="M15 66H16V67H15Z" /><path d="M77 66H78V67H76V66Z" /><path d="M16 65H18V66H16Z" /><path d="M30 100V101H31V103H32V104H34V102H33V101H32V99H30Z" /><path d="M111 100V102H112V101H113V100H112V99H110V100Z" /><path d="M116 99H117V100H116Z" /><path d="M112 96H113V94H112V93H114V96H116V99H113V98H112V97Z" /><path d="M106 96H107V97H106Z" /><path d="M108 96V99H110V96H109V94H108V95Z" /><path d="M111 95V96H112V94H111Z" /><path d="M118 95V96H119V95H121V94H122V92H123V90H124V88H125V84H126V83H124V85H123V89H122V90H121V91H120V93H117V94H116V95H117Z" /><path d="M87 97H88V98H87Z" /><path d="M33 106H34V107H33Z" /><path d="M68 86H69V87H68Z" /><path d="M65 86H67V87H65Z" /><path d="M105 86H106V87H105Z" /><path d="M30 87H33V89H29V88H30Z" /><path d="M110 86H111V87H110Z" /><path d="M111 85V86H112V84H111Z" /><path d="M76 85H78V86H76Z" /><path d="M109 88H110V90H109V89Z" /><path d="M66 88H67V89H66Z" /><path d="M107 87H108V88H107Z" /><path d="M31 83H32V84H31Z" /><path d="M82 83H83V84H82V85H81V83Z" /><path d="M63 83H64V84H63Z" /><path d="M73 83H75V84H73Z" /><path d="M80 82H81V83H80Z" /><path d="M73 85H74V86H73Z" /><path d="M32 85V86H33V84H32Z" /><path d="M65 93H66V94H65Z" /><path d="M36 93V94H38V93H37V92H36Z" /><path d="M107 93H108V94H107Z" /><path d="M109 93V94H110V92H109Z" /><path d="M66 92H67V93H66Z" /><path d="M74 95H75V96H74Z" /><path d="M11 90H12V91H11Z" /><path d="M67 90V91H68V89H67Z" /><path d="M33 89H34V90H33Z" /><path d="M72 89H74V90H72Z" /><path d="M47 89H48V90H47Z" /><path d="M85 19H86V20H85Z" /><path d="M79 19H80V20H83V21H81V23H78V22H77V21H79V20Z" /><path d="M7 20H8V21H7Z" /><path d="M39 19H40V20H39Z" /><path d="M42 19H43V20H42Z" /><path d="M39 21H40V22H39Z" /><path d="M36 21H37V22H36Z" /><path d="M91 21H92V22H91V23H89V22H90V21Z" /><path d="M88 21V22H89V20H88Z" /><path d="M41 20H42V21H41Z" /><path d="M77 18H78V19H77Z" /><path d="M75 18H76V19H75Z" /><path d="M71 16H72V17H71Z" /><path d="M86 16H87V18H86V17Z" /><path d="M97 16H98V17H97Z" /><path d="M77 15H78V16H77Z" /><path d="M84 15V16H85V13H84V14Z" /><path d="M67 15H68V16H67Z" /><path d="M53 15H54V16H53Z" /><path d="M107 15V16H108V14H107Z" /><path d="M40 18H41V19H40Z" /><path d="M44 18H45V19H44Z" /><path d="M42 17H43V18H42Z" /><path d="M46 17H47V18H46Z" /><path d="M28 26H31V27H28Z" /><path d="M93 26H94V27H93Z" /><path d="M91 26H92V27H91Z" /><path d="M86 26H87V27H86Z" /><path d="M13 26H14V27H13Z" /><path d="M36 25H37V26H36Z" /><path d="M97 25H95V24H93V25H94V26H98V25H100V24H97Z" /><path d="M87 27H88V29H87V28Z" /><path d="M121 22H122V23H121Z" /><path d="M86 22H87V23H86Z" /><path d="M94 22H95V23H94Z" /><path d="M38 23H36V24H37V25H39V22H38Z" /><path d="M22 23H23V25H22V24Z" /><path d="M25 23V25H24V26H28V22H25Z" /><path d="M88 24H90V25H88Z" /><path d="M101 24H103V25H101Z" /><path d="M42 6H43V7H41V6Z" /><path d="M42 8H43V9H42Z" /><path d="M22 8H23V9H22Z" /><path d="M43 7H44V8H43Z" /><path d="M34 7H35V8H34Z" /><path d="M16 13H17V15H16V14Z" /><path d="M44 13H46V14H44Z" /><path d="M51 13H52V14H51Z" /><path d="M34 12H36V13H34Z" /><path d="M48 12H49V13H48Z" /><path d="M101 14H99V15H102V13H101Z" /><path d="M47 14H49V15H47Z" /><path d="M19 10H20V11H18V12H17V11H16V10H17V9H19Z" /><path d="M39 9H42V10H39Z" /><path d="M38 11H39V12H38Z" /><path d="M75 47H76V49H77V50H78V52H79V54H74V52H73V50H72V47H73V48H75Z" /><path d="M68 47H69V48H68Z" /><path d="M29 46H30V47H29Z" /><path d="M82 46H83V47H82Z" /><path d="M18 48H20V49H18Z" /><path d="M101 43H102V44H101Z" /><path d="M22 44H23V45H22Z" /><path d="M81 42H82V43H81Z" /><path d="M28 43H29V44H28Z" /><path d="M32 43H34V44H32Z" /><path d="M78 45H79V46H78Z" /><path d="M101 45H102V46H101Z" /><path d="M46 54H47V55H46Z" /><path d="M40 54H41V53H42V52H43V56H39V55H40Z" /><path d="M50 54H52V55H50Z" /><path d="M20 53H21V54H20Z" /><path d="M48 53H49V54H48Z" /><path d="M81 53H82V54H81Z" /><path d="M37 56H38V57H33V56H36Z" /><path d="M102 54H103V55H102Z" /><path d="M32 55H33V56H32Z" /><path d="M81 50H82V51H81Z" /><path d="M120 50H121V51H120Z" /><path d="M83 49H84V50H83Z" /><path d="M28 50H29V51H28Z" /><path d="M29 52H30V53H29Z" /><path d="M82 52H83V53H82Z" /><path d="M15 52H16V53H15Z" /><path d="M79 51H80V52H79Z" /><path d="M33 33H34V35H33V34Z" /><path d="M28 32H31V33H28Z" /><path d="M103 32H104V33H103Z" /><path d="M10 34H12V35H10Z" /><path d="M105 33H106V34H105Z" /><path d="M99 29H100V30H99Z" /><path d="M102 29H103V30H102Z" /><path d="M110 29V30H112V28H107V29H109Z" /><path d="M88 29H89V30H88Z" /><path d="M31 31H33V32H31Z" /><path d="M105 30H106V31H105Z" /><path d="M19 40H20V41H19Z" /><path d="M33 40H35V41H33Z" /><path d="M78 40H79V41H78Z" /><path d="M30 39H31V40H30Z" /><path d="M18 39V40H19V39H20V40H21V38H23V37H20V38H18Z" /><path d="M25 39H26V40H25Z" /><path d="M101 39H102V40H101Z" /><path d="M79 39H80V40H79Z" /><path d="M81 39H82V40H81Z" /><path d="M13 42H14V43H13Z" /><path d="M43 42V43H44V41H43Z" /><path d="M36 42H37V43H36Z" /><path d="M35 41H36V42H35Z" /><path d="M29 41H30V42H29Z" /><path d="M32 41H33V42H32Z" /><path d="M24 37H25V39H24V38Z" /><path d="M11 37V38H12V36H11Z" /><path d="M31 36H32V37H31Z" /><path d="M77 38H78V39H77Z" /><path d="M80 38H81V39H80Z" /><path d="M78 37H79V38H78Z" /><path d="M106 37H107V38H106Z" /><path d="M110 37H111V38H110Z" /></g><g fill="rgb(255,255,255)" stroke="none"><path d="M20 28h2v1H20ZM20 29h2v1H20ZM20 30h1v1H20ZM17 31h4v1H17ZM17 32h3v1H17ZM19 29h1v1H19ZM19 30h1v1H19ZM21 31h1v1H21ZM17 30h1v1H17ZM15 30h2v1H15ZM19 28h1v1H19ZM18 29h1v1H18ZM15 28h4v1H15ZM22 28h1v1H22ZM20 27h2v1H20ZM18 27h2v1H18ZM16 27h1v1H16ZM15 27h1v1H15ZM18 33h2v1H18ZM16 33h2v1H16ZM15 33h1v1H15ZM14 33h1v1H14ZM14 31h1v1H14ZM13 30h1v1H13ZM13 31h1v1H13ZM14 32h3v1H14ZM20 32h4v1H20ZM14 35h1v1H14ZM14 34h2v1H14ZM17 35h1v1H17ZM16 35h1v1H16ZM16 34h2v1H16ZM18 30h1v1H18ZM22 30h7v1H22ZM21 30h1v1H21ZM14 30h1v1H14ZM16 29h1v1H16ZM13 29h3v1H13ZM17 29h1v1H17ZM22 29h2v1H22ZM24 28h2v1H24ZM24 29h3v1H24ZM37 28h1v1H37ZM27 28h10v1H27ZM32 27h2v1H32ZM36 27h1v1H36ZM35 29h1v1H35ZM33 29h1v1H33ZM32 29h1v1H32ZM28 29h4v1H28ZM15 31h2v1H15ZM22 31h3v1H22ZM25 32h1v1H25ZM25 31h1v1H25ZM14 36h1v1H14Z" /><path d="M44 87H46V88H44Z" /><path d="M57 89H58V90H57Z" /><path d="M23 14V16H24V17H25V16H26V15H28V13H29V11H28V10H27V11H24V12H23V13Z" /><path d="M88 11V14H89V11H90V9H89V10H88Z" /><path d="M110 20V21H108V20H107V21H103V20H104V19H110Z" /><path d="M24 72H25V73H24Z" /><path d="M95 78H96V79H95Z" /><path d="M27 76H28V77H27Z" /><path d="M26 75H27V76H26Z" /><path d="M39 77H40V78H39Z" /><path d="M55 60H56V61H55Z" /><path d="M100 68H101V69H100Z" /><path d="M101 64H102V65H101Z" /><path d="M21 64H22V65H21Z" /><path d="M88 102V104H89V101H88Z" /><path d="M35 96V97H36V93H35V95Z" /><path d="M89 108H90V110H89V109Z" /><path d="M91 86H92V88H91V87Z" /><path d="M41 86H43V87H41Z" /><path d="M47 88H50V89H47Z" /><path d="M34 88V89H35V87H34Z" /><path d="M35 83H36V84H35Z" /><path d="M33 82H34V83H33Z" /><path d="M39 85H41V86H39Z" /><path d="M92 84H93V85H92Z" /><path d="M37 84H38V85H37Z" /><path d="M89 93H90V96H89V94Z" /><path d="M90 89H91V91H90V90Z" /><path d="M98 19H99V20H98Z" /><path d="M111 19H112V21H111V20Z" /><path d="M117 19H118V18H121V17H122V19H121V20H120V19H119V21H118V20H117Z" /><path d="M100 18H101V19H100Z" /><path d="M93 18H94V19H93Z" /><path d="M75 16H76V17H75Z" /><path d="M72 15H73V16H72Z" /><path d="M106 17H107V18H106Z" /><path d="M90 17H91V18H90Z" /><path d="M23 26H24V28H23V27Z" /><path d="M94 5H95V8H94V6Z" /><path d="M96 5H97V6H96Z" /><path d="M90 7H91V9H90V8Z" /><path d="M91 6H92V7H91Z" /><path d="M30 12H31V13H30Z" /><path d="M67 14H68V15H67Z" /><path d="M32 10H33V11H32Z" /><path d="M34 10H35V11H34Z" /><path d="M108 42H109V43H108Z" /><path d="M121 52H122V53H121Z" /><path d="M106 32H107V33H106Z" /><path d="M107 33H108V34H107Z" /><path d="M20 34H21V35H20Z" /><path d="M109 39V41H110V37H109V38Z" /><path d="M40 42H41V43H40Z" /><path d="M13 37H14V38H13Z" /><path d="M108 35H109V36H108Z" /></g><g fill="rgb(81,10,151)" stroke="none"><path d="M62 34h1v1H62ZM54 33h1v1H54ZM44 33h10v1H44ZM55 33h11v1H55ZM50 32h1v1H50ZM45 32h5v1H45ZM51 32h1v1H51ZM55 32h7v1H55ZM63 32h1v1H63ZM62 32h1v1H62ZM64 32h7v1H64ZM58 34h1v1H58ZM49 35h7v1H49ZM49 34h9v1H49ZM59 34h3v1H59ZM63 34h2v1H63ZM48 34h1v1H48ZM58 35h1v1H58ZM64 31h1v1H64ZM57 31h7v1H57ZM65 31h1v1H65ZM68 31h3v1H68ZM44 31h7v1H44ZM50 30h2v1H50ZM69 30h1v1H69ZM63 29h1v1H63ZM63 28h1v1H63ZM62 28h1v1H62ZM64 28h1v1H64ZM62 29h1v1H62ZM64 29h2v1H64ZM60 29h2v1H60ZM59 29h1v1H59ZM58 29h1v1H58ZM58 30h8v1H58ZM57 35h1v1H57ZM59 35h2v1H59ZM60 36h1v1H60ZM51 36h5v1H51ZM57 36h3v1H57ZM62 36h1v1H62ZM61 36h1v1H61ZM63 36h1v1H63ZM50 36h1v1H50ZM61 35h3v1H61ZM59 39h1v1H59ZM59 40h1v1H59ZM60 39h1v1H60ZM61 40h3v1H61ZM61 39h4v1H61ZM61 42h1v1H61ZM61 41h2v1H61ZM60 38h1v1H60ZM54 38h6v1H54ZM61 38h3v1H61ZM62 37h2v1H62ZM61 37h1v1H61ZM60 37h1v1H60ZM52 37h8v1H52Z" /><path d="M113 55h1v1H113ZM108 57h1v1H108ZM104 57h4v1H104ZM114 57h2v1H114ZM112 57h2v1H112ZM111 57h1v1H111ZM110 57h1v1H110ZM109 57h1v1H109ZM113 56h1v1H113ZM103 56h10v1H103ZM114 56h2v1H114ZM111 61h1v1H111ZM112 62h1v1H112ZM112 61h1v1H112ZM113 63h1v1H113ZM113 62h1v1H113ZM108 60h8v1H108ZM113 59h4v1H113ZM111 59h1v1H111ZM109 62h3v1H109ZM115 62h1v1H115ZM114 62h1v1H114ZM109 61h2v1H109ZM113 61h3v1H113ZM112 59h1v1H112ZM110 59h1v1H110ZM109 59h1v1H109ZM105 60h1v1H105ZM104 60h1v1H104ZM104 59h5v1H104ZM110 58h1v1H110ZM104 58h6v1H104ZM111 58h3v1H111ZM114 64h2v1H114ZM112 64h2v1H112ZM114 63h1v1H114ZM109 63h4v1H109ZM115 63h1v1H115ZM112 65h1v1H112ZM113 67h1v1H113ZM114 68h1v1H114ZM114 67h1v1H114ZM114 66h1v1H114ZM113 66h1v1H113ZM115 66h1v1H115ZM114 69h1v1H114ZM115 73h1v1H115ZM115 72h2v1H115ZM118 70h1v1H118ZM115 70h3v1H115ZM115 71h4v1H115ZM115 69h3v1H115ZM115 68h2v1H115ZM113 65h3v1H113ZM108 55h1v1H108ZM104 55h4v1H104ZM109 55h4v1H109ZM114 55h2v1H114ZM113 52h1v1H113ZM112 53h1v1H112ZM109 53h3v1H109ZM113 53h3v1H113ZM115 54h1v1H115ZM113 54h2v1H113ZM112 54h1v1H112ZM111 54h1v1H111ZM106 53h2v1H106ZM104 53h2v1H104ZM104 54h7v1H104ZM110 52h1v1H110ZM107 49h1v1H107ZM107 48h1v1H107ZM105 51h1v1H105ZM105 50h9v1H105ZM115 50h1v1H115ZM114 50h1v1H114ZM116 50h1v1H116ZM112 42h2v1H112ZM111 42h1v1H111ZM114 42h1v1H114ZM112 43h1v1H112ZM111 41h1v1H111ZM115 41h1v1H115ZM114 41h1v1H114ZM110 43h2v1H110ZM113 43h6v1H113ZM115 42h3v1H115ZM119 46h1v1H119ZM111 46h8v1H111ZM116 48h1v1H116ZM114 48h2v1H114ZM113 48h1v1H113ZM112 48h1v1H112ZM109 48h3v1H109ZM115 47h1v1H115ZM109 46h1v1H109ZM108 47h7v1H108ZM116 47h2v1H116ZM118 48h1v1H118ZM118 47h1v1H118ZM110 45h9v1H110ZM115 44h1v1H115ZM110 44h5v1H110ZM116 44h3v1H116ZM110 49h1v1H110ZM106 49h1v1H106ZM109 49h1v1H109ZM111 49h6v1H111ZM118 49h1v1H118ZM105 52h3v1H105ZM109 52h1v1H109ZM111 52h2v1H111ZM114 52h2v1H114ZM113 51h3v1H113ZM111 51h2v1H111ZM110 51h1v1H110ZM109 51h1v1H109ZM104 51h1v1H104ZM106 51h3v1H106ZM112 41h2v1H112Z" /><path d="M81 14V15H80V16H78V12H79V13H81Z" /><path d="M68 52H69V58H68V57H66V54H67V53H68Z" /><path d="M52 84V83H49V82H47V81H46V83H45V82H41V80H43V79H44V77H43V78H40V79H35V78H33V79H34V80H37V81H34V82H36V83H40V84H41V85H43V86H44V85H46V87H47V86H48V87H54V85H53V84Z" /><path d="M80 23H81V24H79V25H78V26H76V25H75V24H74V23H75V22H76V21H74V18H75V20H77V22H78V23H79Z" /><path d="M103 92h1v1H103ZM98 93h7v1H98ZM96 93h2v1H96ZM95 93h1v1H95ZM94 93h1v1H94ZM102 92h1v1H102ZM96 92h4v1H96ZM100 91h1v1H100ZM100 92h2v1H100ZM104 92h1v1H104ZM104 94h1v1H104ZM94 100h8v1H94ZM92 100h2v1H92ZM91 100h1v1H91ZM90 100h1v1H90ZM100 99h1v1H100ZM90 99h6v1H90ZM99 99h1v1H99ZM100 101h1v1H100ZM91 101h9v1H91ZM90 98h2v1H90ZM93 98h1v1H93ZM92 98h1v1H92ZM94 98h2v1H94ZM99 98h2v1H99ZM99 96h1v1H99ZM92 96h7v1H92ZM97 95h4v1H97ZM92 97h1v1H92ZM90 96h1v1H90ZM90 97h2v1H90ZM93 97h9v1H93ZM102 96h1v1H102ZM102 97h1v1H102ZM95 95h1v1H95ZM93 102h1v1H93ZM94 103h2v1H94ZM94 102h4v1H94ZM98 103h1v1H98ZM98 102h1v1H98ZM96 95h1v1H96ZM94 95h1v1H94ZM93 95h1v1H93ZM95 94h7v1H95ZM97 91h3v1H97ZM101 91h4v1H101ZM103 83h1v1H103ZM100 83h3v1H100ZM99 79h1v1H99ZM98 79h1v1H98ZM100 79h1v1H100ZM98 78h3v1H98ZM97 81h2v1H97ZM98 80h1v1H98ZM96 80h2v1H96ZM99 80h1v1H99ZM100 81h3v1H100ZM100 80h1v1H100ZM102 80h1v1H102ZM101 82h2v1H101ZM103 84h1v1H103ZM95 81h1v1H95ZM96 83h2v1H96ZM96 82h1v1H96ZM95 82h1v1H95ZM97 84h1v1H97ZM97 86h6v1H97ZM102 85h1v1H102ZM101 85h1v1H101ZM98 85h3v1H98ZM102 88h1v1H102ZM98 88h4v1H98ZM100 87h1v1H100ZM97 87h3v1H97ZM101 87h2v1H101ZM98 84h5v1H98ZM98 89h6v1H98ZM97 89h1v1H97ZM103 90h2v1H103ZM101 90h2v1H101ZM100 90h1v1H100ZM99 90h1v1H99ZM98 90h1v1H98Z" /><path d="M101 25H105V26H106V25H108V26H110V25H115V24H117V23H120V24H119V25H120V26H119V28H118V30H113V29H112V28H107V29H110V31H109V30H107V31H106V30H103V29H101V27H99V26H98V25H100V26H101Z" /><path d="M42 96V97H44V96H45V95H47V94H49V92H45V93H44V94H43V93H41V94H40V95H41V96Z" /><path d="M76 64H77V61H84V64H85V65H87V66H88V67H90V71H89V72H90V73H89V74H90V76H93V75H94V76H95V77H94V78H93V81H92V83H90V82H88V83H86V80H87V78H88V76H87V75H86V73H87V72H86V70H84V69H82V68H80V67H79V66H76V65Z" /><path d="M65 72H66V73H67V74H68V76H64V72Z" /><path d="M42 69h1v1H42ZM39 68h5v1H39ZM39 67h5v1H39ZM42 73h1v1H42ZM38 74h1v1H38ZM37 74h1v1H37ZM36 74h1v1H36ZM35 74h1v1H35ZM34 74h1v1H34ZM33 74h1v1H33ZM39 74h5v1H39ZM41 73h1v1H41ZM43 73h1v1H43ZM39 73h2v1H39ZM38 73h1v1H38ZM37 73h1v1H37ZM33 73h4v1H33ZM35 71h6v1H35ZM38 70h4v1H38ZM35 72h3v1H35ZM40 72h3v1H40ZM34 75h1v1H34ZM33 75h1v1H33ZM35 75h1v1H35ZM39 76h1v1H39ZM37 76h2v1H37ZM36 76h1v1H36ZM36 75h6v1H36ZM41 69h1v1H41ZM40 69h1v1H40ZM39 69h1v1H39ZM38 66h4v1H38ZM43 66h1v1H43ZM42 66h1v1H42ZM44 66h2v1H44ZM46 67h1v1H46ZM46 66h2v1H46ZM49 61h5v1H49ZM48 61h1v1H48ZM48 60h5v1H48ZM46 62h8v1H46ZM49 59h2v1H49ZM46 63h1v1H46ZM41 61h2v1H41ZM39 63h4v1H39ZM40 62h4v1H40ZM44 63h1v1H44ZM43 63h1v1H43ZM43 64h1v1H43ZM39 64h4v1H39ZM44 64h4v1H44ZM50 63h3v1H50ZM40 65h8v1H40ZM39 65h1v1H39Z" /><path d="M34 48V49H36V50H37V46H36V44H35V45H33V44H31V48H33Z" /><path d="M91 70H92V71H91Z" /><path d="M44 79H45V80H44Z" /><path d="M60 80H61V81H60Z" /><path d="M28 81H29V82H27V81Z" /><path d="M23 81H26V83H29V82H30V84H32V87H30V88H29V89H23V87H22V86H21V85H22V82H23Z" /><path d="M86 76H87V78H86V77Z" /><path d="M76 60H77V61H76Z" /><path d="M80 57V58H82V55H81V56H80Z" /><path d="M83 57V59H84V56H83Z" /><path d="M39 57H40V58H39Z" /><path d="M53 56H56V57H47V55H50V56H52Z" /><path d="M69 58H70V59H69Z" /><path d="M106 100H107V99H110V100H111V101H106Z" /><path d="M112 99V100H113V98H112Z" /><path d="M104 87H105V88H104Z" /><path d="M40 92H41V93H40Z" /><path d="M78 19H79V20H78Z" /><path d="M55 19H56V20H55V24H53V25H51V23H50V19H51V17H49V16H54V18H55Z" /><path d="M26 20V19H27V18H28V22H25V23H24V21H25V20Z" /><path d="M76 18H77V19H76Z" /><path d="M82 21H83V22H84V23H81V21Z" /><path d="M29 16H30V17H29V18H28V16Z" /><path d="M83 15H84V16H83Z" /><path d="M54 28H55V29H54V30H52V29H53V28Z" /><path d="M120 24H121V25H120Z" /><path d="M14 8V10H15V9H16V8H15V7H14Z" /><path d="M11 13V16H12V14H13V13H14V11H11V12Z" /><path d="M33 13H35V14H32V13Z" /><path d="M30 15H32V16H30Z" /><path d="M10 10H11V11H10Z" /><path d="M11 9H12V10H11Z" /><path d="M77 47H78V49H79V50H80V51H79V52H78V50H77V49H76V46H77Z" /><path d="M101 46H102V47H101Z" /><path d="M104 47H105V48H104Z" /><path d="M63 48H64V49H63Z" /><path d="M78 42H79V43H78Z" /><path d="M120 45H121V46H120Z" /><path d="M4 54H5V55H4Z" /><path d="M65 53V54H66V52H65Z" /><path d="M38 56H39V57H38Z" /><path d="M4 56H5V57H4Z" /><path d="M3 55H4V56H3Z" /><path d="M103 50V51H104V50H105V49H103Z" /><path d="M37 52H38V53H37Z" /><path d="M117 52V53H118V51H117Z" /><path d="M71 33H72V34H71Z" /><path d="M97 32H103V34H102V33H98V34H97V33Z" /><path d="M80 32H81V33H80Z" /><path d="M97 29V30H99V28H97Z" /><path d="M54 30H56V31H54Z" /><path d="M118 30H119V31H118Z" /><path d="M106 39H107V42H106V40Z" /><path d="M67 39H68V40H67Z" /><path d="M59 42H60V43H59Z" /><path d="M34 42H35V43H34Z" /><path d="M58 41H59V42H58Z" /><path d="M65 38H66V39H65Z" /><path d="M100 38H101V39H100Z" /></g><g fill="rgb(72,31,107)" stroke="none"><path d="M111 37V40H110V43H111V41H116V42H118V43H119V42H121V41H120V38H119V33H118V30H113V29H112V30H110V31H109V30H107V32H108V33H109V35H110V37Z" /><path d="M106 0H110V2H111V3H109V7H108V12H110V13H111V14H112V13H113V11H115V12H114V13H115V14H113V16H112V18H111V16H109V15H108V14H107V11H106V9H105V8H104V11H103V10H102V11H101V14H100V13H98V12H99V10H98V9H97V8H99V9H100V8H101V5H102V3H103V2H102V1H101V2H100V0H105Z" /><path d="M18 97h1v1H18ZM20 98h1v1H20ZM19 98h1v1H19ZM18 98h1v1H18ZM28 100h2v1H28ZM27 100h1v1H27ZM26 100h1v1H26ZM14 100h12v1H14ZM21 99h9v1H21ZM19 99h1v1H19ZM28 102h3v1H28ZM29 101h1v1H29ZM20 101h9v1H20ZM30 101h1v1H30ZM18 101h2v1H18ZM20 99h1v1H20ZM18 99h1v1H18ZM12 98h1v1H12ZM12 97h1v1H12ZM11 97h1v1H11ZM13 97h1v1H13ZM14 98h1v1H14ZM14 97h3v1H14ZM17 95h2v1H17ZM17 96h1v1H17ZM17 97h1v1H17ZM19 96h1v1H19ZM19 97h1v1H19ZM21 96h1v1H21ZM21 97h1v1H21ZM20 97h1v1H20ZM22 97h3v1H22ZM30 97h1v1H30ZM28 97h2v1H28ZM27 97h1v1H27ZM26 97h1v1H26ZM25 97h1v1H25ZM11 96h6v1H11ZM18 96h1v1H18ZM20 96h1v1H20ZM23 96h1v1H23ZM22 96h1v1H22ZM24 96h8v1H24ZM17 99h1v1H17ZM13 99h4v1H13ZM23 98h1v1H23ZM13 98h1v1H13ZM15 98h3v1H15ZM21 98h2v1H21ZM24 98h7v1H24ZM19 95h1v1H19ZM13 95h4v1H13ZM20 95h1v1H20ZM21 94h2v1H21ZM17 93h9v1H17ZM27 93h1v1H27ZM26 93h1v1H26ZM28 93h6v1H28ZM21 95h10v1H21ZM32 95h1v1H32ZM31 95h1v1H31ZM33 95h1v1H33ZM27 94h7v1H27ZM25 94h2v1H25ZM24 94h1v1H24ZM23 94h1v1H23ZM14 93h1v1H14ZM14 94h7v1H14ZM23 92h1v1H23ZM14 92h2v1H14ZM17 92h6v1H17ZM24 92h10v1H24ZM25 90h2v1H25ZM24 90h1v1H24ZM27 90h7v1H27ZM29 89h4v1H29ZM31 91h3v1H31ZM29 91h2v1H29ZM28 91h1v1H28ZM15 90h1v1H15ZM15 91h2v1H15ZM27 91h1v1H27ZM18 91h2v1H18ZM20 90h1v1H20ZM20 91h7v1H20Z" /><path d="M54 4H55V5H54Z" /><path d="M125 22V23H127V21H128V19H127V18H126V19H125V21Z" /><path d="M66 44V43H67V40H68V41H70V42H69V45H68V48H69V51H68V50H66V52H65V49H64V48H63V46H64V43H65V44Z" /><path d="M30 46V47H29V49H30V51H31V49H32V52H36V49H34V48H31V44H30V45Z" /><path d="M40 93H41V94H40V95H39V96H37V94H38V93H37V92H36V90H37V91H38V92H40Z" /><path d="M77 7H76V8H78V9H79V10H81V9H80V8H79V6H77Z" /><path d="M75 47V48H73V47H72V50H73V52H72V51H71V49H70V43H71V41H72V40H73V42H74V44H75V45H76V47Z" /><path d="M81 72h1v1H81ZM80 73h2v1H80ZM83 73h1v1H83ZM82 73h1v1H82ZM85 73h1v1H85ZM84 73h1v1H84ZM78 73h2v1H78ZM77 74h3v1H77ZM80 75h1v1H80ZM80 74h6v1H80ZM79 71h5v1H79ZM80 70h1v1H80ZM79 70h1v1H79ZM81 70h3v1H81ZM79 72h2v1H79ZM82 72h4v1H82ZM78 75h2v1H78ZM81 75h2v1H81ZM85 76h1v1H85ZM83 76h2v1H83ZM83 75h3v1H83ZM84 78h1v1H84ZM84 77h1v1H84ZM80 69h4v1H80ZM76 73h1v1H76ZM76 71h2v1H76ZM76 70h2v1H76ZM76 72h1v1H76ZM76 69h3v1H76ZM79 67h1v1H79ZM78 67h1v1H78ZM75 67h3v1H75ZM76 68h6v1H76ZM78 66h1v1H78Z" /><path d="M104 100H105V99H107V100H106V101H111V103H109V104H106V105H104V106H102V107H96V108H94V104H96V103H98V104H101V101H104Z" /><path d="M117 53H118V54H119V55H120V56H118V55H117V54Z" /><path d="M75 74H76V75H75Z" /><path d="M57 74H58V75H57Z" /><path d="M52 74H53V75H50V74H51Z" /><path d="M113 74H114V77H113V80H112V84H111V82H109V81H108V79H107V75H106V74H107V73H108V72H110V73H113Z" /><path d="M59 73H60V74H59Z" /><path d="M86 78H87V79H86Z" /><path d="M71 76H72V77H71Z" /><path d="M75 76H76V77H75Z" /><path d="M76 75H77V76H76Z" /><path d="M39 78H40V79H39Z" /><path d="M36 78H37V79H36Z" /><path d="M42 77H43V78H42Z" /><path d="M73 77H74V78H73Z" /><path d="M54 61V62H55V60H54Z" /><path d="M117 59H118V60H117Z" /><path d="M56 60H57V61H56Z" /><path d="M119 62H120V63H119Z" /><path d="M116 61H118V62H116Z" /><path d="M56 62H57V63H56Z" /><path d="M10 62H11V63H10Z" /><path d="M9 59H10V60H9Z" /><path d="M119 58H120V59H119Z" /><path d="M121 58H122V59H121Z" /><path d="M115 67H116V64H117V66H118V68H119V70H118V69H117V68H115Z" /><path d="M5 68H6V69H5Z" /><path d="M3 69H5V70H3Z" /><path d="M87 100V106H88V98H87V99Z" /><path d="M33 101H34V102H33Z" /><path d="M103 96h1v1H103ZM102 95h3v1H102ZM105 96h1v1H105ZM105 95h1v1H105ZM103 97h1v1H103ZM105 93h2v1H105ZM105 92h3v1H105ZM106 94h2v1H106ZM105 94h1v1H105ZM103 94h1v1H103ZM102 94h1v1H102ZM105 91h4v1H105ZM105 90h1v1H105ZM107 86h3v1H107ZM109 85h2v1H109ZM108 88h1v1H108ZM108 87h2v1H108ZM109 84h2v1H109ZM106 88h1v1H106ZM106 87h1v1H106ZM106 89h3v1H106ZM106 90h3v1H106Z" /><path d="M45 97V98H46V99H50V97H49V96H47V95H45V96Z" /><path d="M107 98V99H108V97H107Z" /><path d="M70 97H71V98H70Z" /><path d="M44 108H42V107H34V106H35V103H36V104H38V103H40V104H43V105H46V106H47V107H46V108H45Z" /><path d="M47 107H48V108H47Z" /><path d="M33 107H34V108H33Z" /><path d="M90 108H91V110H90V109Z" /><path d="M88 109H89V110H88Z" /><path d="M32 104H33V105H32Z" /><path d="M31 103H32V104H31Z" /><path d="M18 82H21V86H22V87H23V89H20V88H19V89H18V87H17V86H19V85H20V83H18Z" /><path d="M61 86V87H62V85H61Z" /><path d="M14 87V88H15V86H14Z" /><path d="M125 85V86H127V83H126V84H125Z" /><path d="M35 86H36V88H35V87Z" /><path d="M38 86H39V87H38Z" /><path d="M43 88H44V89H43Z" /><path d="M57 88H59V89H57Z" /><path d="M41 87H42V88H41Z" /><path d="M50 87H52V88H50Z" /><path d="M10 88H11V89H10Z" /><path d="M62 83H63V84H62Z" /><path d="M108 82H109V84H108V83Z" /><path d="M16 85H17V86H16Z" /><path d="M36 85H37V86H36Z" /><path d="M12 90V91H13V89H11V90Z" /><path d="M52 90H57V91H51V90Z" /><path d="M58 90H59V91H58Z" /><path d="M16 89H17V90H16Z" /><path d="M124 88H126V89H124Z" /><path d="M124 16H125V17H124Z" /><path d="M127 15H128V16H127Z" /><path d="M114 15H117V16H114Z" /><path d="M114 17H115V18H114Z" /><path d="M123 25V26H124V24H125V23H124V22H122V23H120V24H121V25H122Z" /><path d="M32 25H33V26H32Z" /><path d="M35 24H37V25H35Z" /><path d="M12 6H13V7H12Z" /><path d="M85 5H86V4H87V5H88V7H87V8H83V7H84V6H85Z" /><path d="M44 6V8H45V7H46V5H43V6Z" /><path d="M48 6H49V7H48Z" /><path d="M50 6V7H51V6H52V5H53V4H50V5H49V6Z" /><path d="M18 6V7H15V8H17V9H19V10H22V8H23V7H25V8H27V9H28V8H29V9H30V8H33V7H32V4H30V3H25V4H23V5H18Z" /><path d="M40 6H41V7H38V6H39Z" /><path d="M35 6H36V7H35Z" /><path d="M13 5H14V6H13Z" /><path d="M88 4V5H89V4H90V3H91V2H89V3H88Z" /><path d="M53 5H54V6H53Z" /><path d="M49 7H50V8H49Z" /><path d="M48 1H49V2H48Z" /><path d="M92 1H93V2H92Z" /><path d="M51 0H52V1H51Z" /><path d="M98 0H99V1H97V0Z" /><path d="M95 0H96V1H94V0Z" /><path d="M53 3H54V4H53Z" /><path d="M38 4H40V5H38Z" /><path d="M17 4H18V5H17Z" /><path d="M48 3H50V4H48Z" /><path d="M67 13H72V14H67Z" /><path d="M52 13H53V14H52Z" /><path d="M50 12V13H51V11H50Z" /><path d="M53 12V13H54V12H55V11H54V10H53V11Z" /><path d="M58 12H61V13H57V12Z" /><path d="M93 12H95V14H94V13H93Z" /><path d="M104 12V13H105V11H104Z" /><path d="M106 14H107V15H106Z" /><path d="M3 15H4V16H3Z" /><path d="M105 13H106V14H105Z" /><path d="M73 9H76V11H74V12H71V10H73Z" /><path d="M77 9H78V10H77Z" /><path d="M82 9V10H81V11H83V8H82Z" /><path d="M52 9H53V10H52Z" /><path d="M97 11V12H98V10H97Z" /><path d="M51 10H52V11H51Z" /><path d="M16 47H17V48H16Z" /><path d="M18 47H19V48H18Z" /><path d="M15 46H16V47H15Z" /><path d="M17 46H18V47H17Z" /><path d="M107 46H108V47H107Z" /><path d="M20 49H22V50H20Z" /><path d="M109 43H110V44H109Z" /><path d="M120 43H122V44H120Z" /><path d="M36 44V46H37V43H36V42H35V44Z" /><path d="M23 44H24V45H23Z" /><path d="M61 43H62V45H61V44Z" /><path d="M22 43H23V44H22Z" /><path d="M82 45V46H83V44H81V45Z" /><path d="M106 44H107V45H106Z" /><path d="M120 53H121V54H120Z" /><path d="M124 55H125V56H124Z" /><path d="M6 56H7V57H6Z" /><path d="M125 54H126V55H125Z" /><path d="M54 55H55V56H54Z" /><path d="M73 52H74V53H73Z" /><path d="M79 52H80V53H79Z" /><path d="M80 51H81V52H80Z" /><path d="M120 51H121V52H120Z" /><path d="M37 32H38V33H37Z" /><path d="M105 34H107V35H105Z" /><path d="M35 40H38V41H37V42H36V41H35Z" /><path d="M0 40H1V42H0V41Z" /><path d="M40 40H41V41H40Z" /><path d="M107 39V42H108V38H107Z" /><path d="M70 39H71V40H70Z" /><path d="M65 39H66V40H65Z" /><path d="M102 41H103V42H102Z" /><path d="M63 42H64V43H63Z" /><path d="M15 42H16V43H15Z" /><path d="M31 42H32V43H31Z" /><path d="M105 36H106V37H105Z" /><path d="M102 35H104V36H102Z" /><path d="M71 38H72V39H71Z" /><path d="M74 38H77V39H74Z" /><path d="M73 37H74V38H73Z" /><path d="M66 37H68V38H66Z" /></g><g fill="rgb(12,21,158)" stroke="none"><path d="M22 61V63H23V66H24V69H25V71H26V73H27V74H30V72H31V70H30V67H32V69H33V67H34V65H33V60H32V58H31V57H30V54H29V53H26V52H25V53H23V54H22V60Z" /><path d="M21 69V68H20V67H21V65H20V56H19V58H17V61H18V66H19V67H18V69H14V73H15V74H16V75H17V74H18V75H19V76H24V74H23V71H22V69Z" /><path d="M63 17H64V18H67V22H63V21H62V20H63V18Z" /><path d="M58 71V72H51V70H52V69H57V70H58Z" /><path d="M31 69H32V70H31Z" /><path d="M80 86H77V87H75V89H76V91H77V93H78V95H81V92H80V90H81V89H80V87H81V86H82V85H80Z" /><path d="M45 51H50V52H45Z" /><path d="M28 33H30V34H31V35H30V38H29V39H28V40H27V39H26V37H27V38H28V36H27V34H28Z" /><path d="M85 29H86V31H87V32H84V30H85Z" /></g><g fill="rgb(43,31,189)" stroke="none"><path d="M95 62h1v1H95ZM94 63h2v1H94ZM94 64h1v1H94ZM96 62h1v1H96ZM96 63h1v1H96ZM92 62h3v1H92ZM98 62h1v1H98ZM98 63h1v1H98ZM98 64h1v1H98ZM98 66h1v1H98ZM98 65h1v1H98ZM97 64h1v1H97ZM97 65h1v1H97ZM97 62h1v1H97ZM99 62h1v1H99ZM96 60h5v1H96ZM94 60h2v1H94ZM93 60h1v1H93ZM92 60h1v1H92ZM91 60h1v1H91ZM91 61h9v1H91ZM97 59h1v1H97ZM91 59h6v1H91ZM98 59h3v1H98ZM100 55h1v1H100ZM97 57h1v1H97ZM91 57h6v1H91ZM98 57h3v1H98ZM91 56h10v1H91ZM99 58h2v1H99ZM98 58h1v1H98ZM97 58h1v1H97ZM91 58h6v1H91ZM91 67h1v1H91ZM90 67h1v1H90ZM92 67h7v1H92ZM95 73h1v1H95ZM94 73h1v1H94ZM96 73h1v1H96ZM94 74h2v1H94ZM92 71h3v1H92ZM92 70h4v1H92ZM94 72h1v1H94ZM96 72h1v1H96ZM94 75h2v1H94ZM92 69h5v1H92ZM97 71h1v1H97ZM97 70h1v1H97ZM98 69h1v1H98ZM97 69h1v1H97ZM97 68h1v1H97ZM90 68h7v1H90ZM98 68h1v1H98ZM95 64h1v1H95ZM92 64h2v1H92ZM96 64h1v1H96ZM99 64h1v1H99ZM92 63h2v1H92ZM97 63h1v1H97ZM99 63h1v1H99ZM99 66h1v1H99ZM91 66h7v1H91ZM96 65h1v1H96ZM99 65h1v1H99ZM94 65h2v1H94ZM93 65h1v1H93ZM92 65h1v1H92ZM98 54h1v1H98ZM93 53h7v1H93ZM98 55h2v1H98ZM96 55h2v1H96ZM95 55h1v1H95ZM94 55h1v1H94ZM91 55h3v1H91ZM99 54h1v1H99ZM92 54h6v1H92ZM100 54h1v1H100ZM99 52h1v1H99ZM98 52h1v1H98ZM96 52h1v1H96Z" /><path d="M74 21H76V22H75V23H72V21H73Z" /><path d="M96 34h1v1H96ZM96 35h1v1H96ZM91 32h1v1H91ZM92 31h1v1H92ZM92 32h1v1H92ZM92 33h1v1H92ZM94 33h1v1H94ZM94 32h1v1H94ZM96 32h1v1H96ZM95 32h1v1H95ZM93 32h1v1H93ZM93 33h1v1H93ZM95 33h1v1H95ZM92 34h4v1H92ZM96 33h1v1H96ZM90 31h2v1H90ZM93 31h2v1H93ZM91 28h1v1H91ZM91 27h1v1H91ZM91 29h2v1H91ZM90 29h1v1H90ZM90 30h3v1H90ZM96 26h3v1H96ZM98 27h3v1H98ZM96 27h2v1H96ZM95 27h1v1H95ZM93 27h1v1H93ZM93 28h1v1H93ZM94 29h2v1H94ZM94 28h3v1H94ZM99 28h2v1H99ZM94 30h2v1H94ZM95 35h1v1H95ZM93 35h2v1H93Z" /><path d="M72 57H73V56H80V60H79V61H77V60H76V61H74V60H73V59H72V58Z" /><path d="M85 34h1v1H85ZM87 34h1v1H87ZM86 34h1v1H86ZM84 35h3v1H84ZM83 33h4v1H83ZM84 32h4v1H84ZM88 33h1v1H88ZM88 32h1v1H88ZM84 34h1v1H84ZM87 35h2v1H87Z" /><path d="M82 95V96H83V97H84V96H85V97H87V95H88V93H89V89H90V86H91V83H90V82H88V83H83V85H82V86H81V87H80V89H81V90H80V92H81V95Z" /><path d="M97 89V90H98V91H97V92H96V93H94V94H95V95H93V96H92V97H91V92H92V88H93V85H95V83H96V84H97V85H98V86H97V88H98V89Z" /><path d="M45 72H46V73H47V68H46V67H44V69H43V70H42V71H41V72H43V73H44V74H45V73Z" /><path d="M29 74H30V76H29V75H28V74Z" /><path d="M99 74H101V75H99Z" /><path d="M101 71H102V72H101Z" /><path d="M38 70V71H36V69H37V67H39V70Z" /><path d="M100 72H101V73H100Z" /><path d="M33 72H35V73H33Z" /><path d="M38 72H40V73H38Z" /><path d="M28 80H29V81H27V82H29V83H26V81H25V79H24V80H23V79H22V78H23V76H25V77H26V78H27V79H28Z" /><path d="M33 80V81H37V80H34V79H33V78H32V77H31V79H32V80Z" /><path d="M96 81H97V82H96Z" /><path d="M29 81H30V82H29Z" /><path d="M30 76H31V77H30Z" /><path d="M98 77H99V78H98Z" /><path d="M103 62V63H104V61H103Z" /><path d="M102 69V70H103V68H102Z" /><path d="M112 95V96H113V94H112Z" /><path d="M30 83V84H31V82H30Z" /><path d="M97 82H98V83H97Z" /><path d="M75 19H78V20H79V21H77V20H75Z" /><path d="M43 19H45V18H47V17H51V19H50V23H49V22H45V23H43V22H42V20H43Z" /><path d="M55 21h7v1H55ZM55 20h5v1H55ZM55 23h6v1H55ZM57 22h5v1H57ZM62 23h1v1H62ZM62 22h1v1H62ZM55 22h2v1H55ZM61 23h1v1H61ZM58 24h1v1H58ZM56 24h2v1H56ZM59 24h2v1H59ZM61 25h1v1H61ZM61 24h2v1H61ZM63 26h1v1H63ZM62 26h1v1H62ZM64 26h2v1H64ZM63 25h3v1H63ZM59 28h3v1H59ZM59 27h5v1H59ZM63 24h1v1H63Z" /><path d="M44 15H43V16H46V15H47V14H44Z" /><path d="M72 18H73V19H72Z" /><path d="M41 17H42V18H41Z" /><path d="M89 26H91V27H89Z" /><path d="M76 13H78V15H76V14Z" /><path d="M47 13H48V14H47Z" /><path d="M27 33H28V34H27Z" /><path d="M9 33H10V34H9Z" /><path d="M81 32H82V33H81Z" /><path d="M11 35H12V36H11Z" /><path d="M26 35H27V36H28V38H27V37H25V36H26Z" /><path d="M86 29H87V30H89V31H86V30Z" /><path d="M11 39V40H12V38H11Z" /><path d="M9 37H10V38H9Z" /></g><g fill="rgb(0,15,92)" stroke="none"><path d="M11 73H6V74H5V75H4V79H3V83H2V85H3V87H6V88H8V86H9V81H10V80H9V78H13V80H14V81H15V82H16V81H17V75H16V74H15V73H14V69H17V68H15V67H14V66H13V65H12V64H11V71H10V72H11Z" /><path d="M45 40V43H44V44H45V50H47V51H48V50H52V52H49V53H55V52H54V50H53V49H52V43H51V42H50V40H49V39H47V38H45V39Z" /><path d="M23 47H24V46H25V45H26V48H28V51H24V52H23V53H22V50H23V48Z" /><path d="M67 99H68V100H64V101H61V102H58V98H59V96H60V91H62V90H64V91H63V94H64V95H65V97H66V98H67Z" /><path d="M24 107H22V108H20V107H19V106H18V105H19V104H20V103H23V104H26V105H28V106H32V107H29V108H27V107H26V108H24Z" /><path d="M3 24V27H4V35H3V39H4V37H5V36H6V33H5V26H4V23H5V18H6V13H5V17H4V22H3V23Z" /><path d="M72 85H71V86H70V88H69V87H68V86H67V89H70V91H71V93H73V94H75V97H76V98H77V95H76V93H74V91H75V87H74V90H72V88H73V84H72Z" /><path d="M12 54H13V53H17V52H20V55H19V56H18V57H17V61H16V62H17V64H18V65H15V64H14V65H13V64H12V62H13V63H15V60H16V59H15V58H13V59H11V56H12V55Z" /><path d="M61 87H63V88H62V89H61V88Z" /><path d="M50 75H58V76H47V75H49Z" /><path d="M127 75H128V78H127V76Z" /><path d="M126 74H127V75H126Z" /><path d="M125 73H126V74H125Z" /><path d="M124 72H125V73H124Z" /><path d="M76 79H77V80H82V81H79V82H78V84H77V85H75V82H76V80Z" /><path d="M11 60H12V61H11Z" /><path d="M69 96H70V97H69Z" /><path d="M76 86H77V87H76Z" /><path d="M65 92H66V93H65Z" /><path d="M65 94H66V95H65Z" /><path d="M67 94H68V95H67Z" /><path d="M66 90H67V91H66Z" /><path d="M61 15H62V16H61Z" /><path d="M65 15H66V16H65Z" /><path d="M31 25H32V26H30V24H31Z" /><path d="M39 10H42V11H41V12H39V11Z" /><path d="M42 9H43V10H42Z" /><path d="M89 43H90V45H89V44Z" /><path d="M20 51H21V52H20Z" /></g><g fill="rgb(1,10,61)" stroke="none"><path d="M1 82h1v1H1ZM1 83h1v1H1ZM1 84h1v1H1ZM1 85h1v1H1ZM2 82h1v1H2ZM0 81h2v1H0ZM0 79h1v1H0ZM0 80h1v1H0ZM0 85h1v1H0ZM1 80h2v1H1ZM1 76h1v1H1ZM1 77h1v1H1ZM1 78h1v1H1ZM2 77h1v1H2ZM2 78h1v1H2ZM0 75h1v1H0ZM0 76h1v1H0ZM0 77h1v1H0ZM3 75h1v1H3ZM2 75h1v1H2ZM1 75h1v1H1ZM1 74h1v1H1ZM0 74h1v1H0ZM2 74h1v1H2ZM4 73h1v1H4ZM4 74h1v1H4ZM3 73h1v1H3ZM3 74h1v1H3ZM0 73h3v1H0ZM5 73h1v1H5ZM0 72h1v1H0ZM7 72h1v1H7ZM6 71h2v1H6ZM9 71h1v1H9ZM8 71h1v1H8ZM4 71h2v1H4ZM3 71h1v1H3ZM2 71h1v1H2ZM1 71h1v1H1ZM9 72h2v1H9ZM8 72h1v1H8ZM6 72h1v1H6ZM1 72h5v1H1ZM1 79h2v1H1ZM0 82h1v1H0ZM2 81h1v1H2ZM3 76h1v1H3ZM2 76h1v1H2ZM0 78h1v1H0ZM3 78h1v1H3ZM3 77h1v1H3ZM2 70h7v1H2ZM8 68h3v1H8ZM8 67h3v1H8ZM8 69h1v1H8ZM10 70h1v1H10ZM10 69h1v1H10ZM9 63h1v1H9ZM9 65h2v1H9ZM9 64h2v1H9ZM9 66h2v1H9ZM0 87h2v1H0ZM2 86h1v1H2ZM2 87h4v1H2ZM0 86h2v1H0ZM0 90h1v1H0ZM0 89h1v1H0ZM0 88h4v1H0ZM4 89h1v1H4ZM4 88h4v1H4ZM10 87h2v1H10ZM8 87h2v1H8ZM8 86h6v1H8ZM8 88h1v1H8ZM0 83h1v1H0ZM2 85h1v1H2ZM9 85h2v1H9ZM12 79h1v1H12ZM10 80h1v1H10ZM10 81h1v1H10ZM10 82h1v1H10ZM10 79h1v1H10ZM9 81h1v1H9ZM9 82h1v1H9ZM11 80h3v1H11ZM9 78h1v1H9ZM9 79h1v1H9ZM11 79h1v1H11ZM11 82h4v1H11ZM11 81h4v1H11ZM10 78h3v1H10ZM11 84h1v1H11ZM11 83h1v1H11ZM9 83h2v1H9ZM12 83h3v1H12ZM11 85h2v1H11ZM12 84h1v1H12ZM9 84h2v1H9ZM0 84h1v1H0ZM1 90h2v1H1ZM3 92h1v1H3ZM4 91h2v1H4ZM3 91h1v1H3ZM3 95h1v1H3ZM4 96h1v1H4ZM4 95h1v1H4ZM3 94h1v1H3ZM5 94h1v1H5ZM5 95h1v1H5ZM5 97h3v1H5ZM7 96h1v1H7ZM5 96h2v1H5ZM8 96h1v1H8ZM5 99h2v1H5ZM6 98h1v1H6ZM5 98h1v1H5ZM2 93h4v1H2ZM6 92h1v1H6ZM6 93h4v1H6ZM8 95h1v1H8ZM7 95h1v1H7ZM9 94h1v1H9ZM2 94h1v1H2ZM4 94h1v1H4ZM6 94h3v1H6ZM3 90h3v1H3ZM7 90h1v1H7ZM6 90h1v1H6ZM8 90h1v1H8ZM2 89h1v1H2ZM1 89h1v1H1ZM3 89h1v1H3ZM5 89h4v1H5ZM1 92h2v1H1ZM4 92h2v1H4ZM7 92h2v1H7ZM10 92h1v1H10ZM9 92h1v1H9ZM1 91h2v1H1ZM6 91h5v1H6Z" /><path d="M23 111H16V110H11V109H12V108H13V107H14V106H19V107H20V108H22V107H24V108H26V107H27V108H29V107H33V109H32V110H31V111H24Z" /><path d="M2 28V24H1V22H2V17H4V22H3V27H4V35H3V36H2V31H1V30H0V28H1Z" /><path d="M64 94V95H65V92H67V93H68V91H63V94Z" /><path d="M68 95H65V97H66V98H67V99H69V98H70V97H69V96H72V95H73V93H68V94Z" /><path d="M5 67V68H7V65H6V66H5Z" /><path d="M4 100H5V102H3V101H4Z" /><path d="M4 16H5V17H4Z" /><path d="M3 14H4V15H3Z" /><path d="M19 47H22V46H23V50H22V49H21V48H19Z" /><path d="M17 49H19V50H21V51H20V52H17V50Z" /></g><g fill="rgb(99,89,176)" stroke="none"><path d="M118 85h1v1H118ZM117 86h2v1H117ZM117 87h3v1H117ZM119 88h1v1H119ZM111 86h6v1H111ZM119 86h1v1H119ZM121 86h1v1H121ZM120 86h1v1H120ZM122 86h1v1H122ZM114 85h1v1H114ZM112 85h2v1H112ZM115 85h3v1H115ZM119 85h4v1H119ZM116 87h1v1H116ZM120 87h3v1H120ZM114 87h2v1H114ZM112 88h2v1H112ZM113 87h1v1H113ZM112 87h1v1H112ZM110 87h2v1H110ZM115 88h1v1H115ZM121 84h2v1H121ZM119 84h2v1H119ZM118 84h1v1H118ZM117 84h1v1H117ZM112 84h5v1H112ZM114 79h7v1H114ZM118 78h1v1H118ZM115 78h3v1H115ZM119 78h2v1H119ZM114 81h5v1H114ZM113 81h1v1H113ZM114 80h6v1H114ZM120 81h2v1H120ZM120 80h2v1H120ZM116 77h5v1H116ZM116 76h3v1H116ZM119 75h2v1H119ZM119 76h2v1H119ZM122 82h1v1H122ZM121 82h1v1H121ZM120 82h1v1H120ZM112 82h7v1H112ZM118 83h1v1H118ZM114 83h4v1H114ZM119 83h5v1H119ZM114 88h1v1H114ZM116 88h2v1H116ZM112 89h8v1H112ZM121 89h1v1H121ZM120 89h1v1H120ZM118 88h1v1H118ZM120 88h3v1H120ZM109 95h2v1H109ZM110 93h2v1H110ZM111 92h3v1H111ZM114 93h3v1H114ZM119 92h1v1H119ZM117 92h2v1H117ZM116 92h1v1H116ZM115 92h1v1H115ZM114 92h1v1H114ZM110 94h1v1H110ZM114 94h1v1H114ZM110 91h1v1H110ZM109 91h1v1H109ZM111 91h9v1H111ZM113 90h1v1H113ZM109 90h1v1H109ZM110 89h1v1H110ZM110 90h1v1H110ZM114 90h7v1H114Z" /><path d="M16 19h1v1H16ZM16 21h1v1H16ZM16 22h1v1H16ZM16 20h3v1H16ZM14 20h1v1H14ZM13 19h3v1H13ZM17 19h1v1H17ZM17 21h3v1H17ZM20 20h5v1H20ZM19 19h5v1H19ZM25 19h1v1H25ZM24 19h1v1H24ZM20 21h4v1H20ZM16 18h2v1H16ZM19 18h2v1H19ZM22 18h1v1H22ZM21 18h1v1H21ZM23 18h4v1H23ZM25 17h2v1H25ZM27 16h1v1H27ZM27 17h1v1H27ZM22 17h1v1H22ZM21 17h1v1H21ZM20 17h1v1H20ZM18 16h2v1H18ZM17 16h1v1H17ZM16 16h1v1H16ZM15 16h1v1H15ZM16 17h4v1H16ZM14 23h3v1H14ZM15 22h1v1H15ZM17 22h1v1H17ZM18 23h4v1H18ZM19 22h4v1H19ZM23 23h2v1H23ZM23 22h1v1H23ZM20 25h4v1H20ZM23 24h2v1H23ZM21 24h1v1H21ZM20 24h1v1H20ZM14 26h1v1H14ZM12 26h1v1H12ZM11 28h2v1H11ZM12 27h2v1H12ZM12 25h5v1H12ZM12 24h2v1H12ZM16 24h3v1H16ZM17 15h4v1H17ZM16 15h1v1H16ZM15 13h1v1H15ZM14 12h2v1H14ZM17 13h3v1H17ZM17 12h1v1H17ZM16 12h1v1H16ZM19 12h2v1H19ZM15 14h1v1H15ZM17 14h3v1H17ZM13 10h3v1H13ZM12 9h2v1H12ZM15 9h1v1H15ZM14 11h3v1H14ZM18 11h2v1H18ZM21 10h1v1H21ZM20 10h1v1H20ZM20 11h2v1H20ZM10 30h1v1H10ZM10 29h2v1H10ZM10 33h1v1H10ZM10 32h1v1H10ZM9 32h1v1H9ZM10 31h1v1H10Z" /><path d="M40 102H36V103H35V100H36V94H37V97H40V98H41V102Z" /><path d="M51 24V25H53V24H56V25H61V26H62V27H59V29H58V31H57V32H55V33H54V31H56V30H54V29H55V28H53V29H52V30H50V31H43V30H38V29H43V28H49V26H37V25H39V22H40V20H41V21H42V22H43V23H45V22H49V23H51Z" /><path d="M100 15H102V16H103V18H101V16H100V17H99V15Z" /><path d="M47 16H49V17H47Z" /><path d="M34 77H35V78H34Z" /><path d="M99 73H100V74H99Z" /><path d="M77 73V74H78V73H79V71H78V72H77Z" /><path d="M97 73H98V74H97Z" /><path d="M31 74V75H32V73H31Z" /><path d="M76 74H77V75H76Z" /><path d="M61 74H62V75H61Z" /><path d="M58 74V75H59V73H58Z" /><path d="M44 74H45V75H44Z" /><path d="M47 74V75H49V73H47Z" /><path d="M89 71H90V72H89Z" /><path d="M91 71H92V72H91Z" /><path d="M96 71V72H97V70H96Z" /><path d="M98 71H99V72H98Z" /><path d="M90 70H91V71H90Z" /><path d="M100 70H101V71H100Z" /><path d="M90 72H91V73H90Z" /><path d="M23 72H24V73H23Z" /><path d="M25 72H26V73H25Z" /><path d="M93 79V80H94V78H93Z" /><path d="M96 79V80H97V79H98V76H97V78H96Z" /><path d="M84 79H85V78H86V80H85V81H84V82H83V83H82V81H83V80H84Z" /><path d="M29 80H30V81H29Z" /><path d="M32 80H33V81H32Z" /><path d="M41 80H42V82H41V81Z" /><path d="M126 78H127V79H126Z" /><path d="M28 79H29V80H28Z" /><path d="M31 79H32V80H31Z" /><path d="M33 81H34V82H33Z" /><path d="M43 81V82H44V81H45V83H46V80H43Z" /><path d="M30 81H31V82H30Z" /><path d="M124 81H126V82H125V83H124V82Z" /><path d="M92 81H93V82H92Z" /><path d="M94 81H95V85H93V84H94V82Z" /><path d="M99 81H100V82H99Z" /><path d="M95 80H96V81H95Z" /><path d="M71 80H72V81H71Z" /><path d="M20 81H21V82H20Z" /><path d="M101 80H102V81H101Z" /><path d="M40 76H41V77H40Z" /><path d="M43 76H44V77H43Z" /><path d="M35 76H36V77H35Z" /><path d="M28 76H29V77H28Z" /><path d="M33 76H34V77H33Z" /><path d="M62 76H63V77H62Z" /><path d="M95 76H96V77H95Z" /><path d="M101 76H102V77H101Z" /><path d="M65 76H66V78H64V77H65Z" /><path d="M72 76H73V78H72V77Z" /><path d="M74 76H75V77H74Z" /><path d="M63 75H64V76H63Z" /><path d="M60 75H61V76H60Z" /><path d="M25 75H26V76H25Z" /><path d="M27 75H28V76H27Z" /><path d="M32 75H33V76H32Z" /><path d="M42 75H43V76H42Z" /><path d="M45 75H46V76H45Z" /><path d="M75 75H76V76H75Z" /><path d="M96 75H97V76H96Z" /><path d="M123 77H124V78H123Z" /><path d="M100 77H101V78H100Z" /><path d="M30 78H31V79H30Z" /><path d="M37 78H39V79H37Z" /><path d="M44 78V79H46V77H44Z" /><path d="M49 78H50V79H49Z" /><path d="M29 77H30V78H29Z" /><path d="M41 77H42V78H41Z" /><path d="M122 76H123V77H122Z" /><path d="M94 77H95V78H94Z" /><path d="M122 60H123V62H121V60Z" /><path d="M11 61H12V63H11V62Z" /><path d="M13 61H14V62H13Z" /><path d="M20 61H21V60H22V62H21V64H20V62Z" /><path d="M106 60H108V61H107V62H106V61Z" /><path d="M101 60V62H102V59H101Z" /><path d="M47 61V62H48V60H45V61H46Z" /><path d="M102 62H103V65H102V63Z" /><path d="M107 62H108V63H107Z" /><path d="M10 63H11V64H10Z" /><path d="M119 61H120V62H118V61Z" /><path d="M108 61H109V62H108Z" /><path d="M55 62H56V63H55Z" /><path d="M120 57H121V58H120Z" /><path d="M20 57V58H21V55H22V50H21V54H20V56Z" /><path d="M116 56V57H118V56H117V55H116Z" /><path d="M12 59H13V60H12Z" /><path d="M8 59H9V60H8Z" /><path d="M55 59H56V60H55Z" /><path d="M57 59H58V60H57Z" /><path d="M114 58H116V59H114Z" /><path d="M24 70H25V71H24Z" /><path d="M3 68H4V69H3Z" /><path d="M101 67H102V68H101Z" /><path d="M23 68H24V69H23Z" /><path d="M21 67H22V68H21Z" /><path d="M99 69V70H100V68H99Z" /><path d="M22 69H23V70H22Z" /><path d="M9 69H10V70H9Z" /><path d="M100 66V67H101V65H100Z" /><path d="M47 63H49V64H51V65H48V64H47Z" /><path d="M52 64H53V63H55V64H54V65H52Z" /><path d="M14 65H15V66H14Z" /><path d="M22 65H23V66H22Z" /><path d="M32 100V101H34V96H32V97H31V99H32Z" /><path d="M103 100V101H104V100H105V98H103V99Z" /><path d="M89 100V106H90V99H89Z" /><path d="M96 99V100H97V98H96Z" /><path d="M98 99V100H99V98H98Z" /><path d="M104 96H105V97H104Z" /><path d="M107 96H108V97H107Z" /><path d="M111 96H112V99H110V97H111Z" /><path d="M101 96H100V97H102V95H101Z" /><path d="M116 96V98H117V99H118V95H115V96Z" /><path d="M106 95H107V96H106Z" /><path d="M70 96H71V97H70Z" /><path d="M101 98H102V99H101Z" /><path d="M106 97H107V98H106Z" /><path d="M88 107H89V109H88V108Z" /><path d="M90 110H91V111H90Z" /><path d="M100 103V104H101V102H100Z" /><path d="M33 104H34V105H35V106H33V105Z" /><path d="M90 86H91V87H90Z" /><path d="M92 86H93V88H92V87Z" /><path d="M64 86H65V87H64Z" /><path d="M69 86H70V87H69Z" /><path d="M15 87H16V86H17V87H18V90H20V91H18V92H17V91H16V90H17V89H16V88H15Z" /><path d="M125 86H127V88H126V87H125Z" /><path d="M33 86H34V89H33V87Z" /><path d="M39 86H40V87H39Z" /><path d="M45 86H46V87H45Z" /><path d="M44 88H46V89H44Z" /><path d="M54 88H57V89H54Z" /><path d="M64 88H66V89H65V90H62V89H64Z" /><path d="M19 88H20V89H19Z" /><path d="M35 88H36V89H35Z" /><path d="M107 88H108V89H107Z" /><path d="M66 87H67V88H66Z" /><path d="M42 87H43V88H42Z" /><path d="M48 87H50V88H48Z" /><path d="M12 88H13V89H12Z" /><path d="M105 87H106V88H105Z" /><path d="M37 83H39V84H37Z" /><path d="M32 83H33V84H32Z" /><path d="M91 83H92V85H91V84Z" /><path d="M98 83V84H100V83H99V82H98Z" /><path d="M79 83H80V85H77V84H79Z" /><path d="M31 82H32V83H31Z" /><path d="M35 82H36V83H35Z" /><path d="M100 82H101V83H100Z" /><path d="M109 82H111V84H109V83Z" /><path d="M13 85H16V86H13Z" /><path d="M37 85H38V86H37Z" /><path d="M42 85H43V86H42Z" /><path d="M34 84H35V85H34Z" /><path d="M74 84H75V85H74Z" /><path d="M40 84H41V85H40Z" /><path d="M63 84H64V85H62V84Z" /><path d="M15 93H16V94H15Z" /><path d="M88 93H89V96H88V94Z" /><path d="M90 93H91V96H90V94Z" /><path d="M75 92V93H76V91H75Z" /><path d="M108 92H109V93H108Z" /><path d="M73 95V96H74V95H75V94H73Z" /><path d="M13 94H14V95H13Z" /><path d="M57 90H58V91H57Z" /><path d="M65 90H66V91H65Z" /><path d="M69 90V91H70V89H69Z" /><path d="M15 89H16V90H14V89Z" /><path d="M9 89H10V90H9Z" /><path d="M89 89H90V91H89V90Z" /><path d="M91 89H92V92H91V90Z" /><path d="M48 89H49V90H48Z" /><path d="M66 89H67V90H66Z" /><path d="M16 92H17V93H16Z" /><path d="M84 19V20H85V19H86V21H87V23H88V20H89V22H90V21H92V24H91V23H90V25H91V26H92V25H93V24H95V25H96V23H97V22H98V21H96V22H95V23H94V22H93V21H94V20H93V19H92V20H90V19H89V17H87V18H86V16H87V12H86V11H87V10H88V8H89V7H87V8H85V11H84V13H85V16H83V17H85V18H84Z" /><path d="M80 19H81V20H80Z" /><path d="M95 19H97V20H95Z" /><path d="M8 20H9V21H8Z" /><path d="M124 19h1v1H124ZM122 20h3v1H122ZM117 22h1v1H117ZM116 22h1v1H116ZM118 22h3v1H118ZM117 21h1v1H117ZM120 21h4v1H120ZM124 22h1v1H124ZM124 21h1v1H124ZM100 25h1v1H100ZM100 24h1v1H100ZM98 22h1v1H98ZM97 23h4v1H97ZM105 22h1v1H105ZM104 22h1v1H104ZM102 22h2v1H102ZM102 23h1v1H102ZM101 23h1v1H101ZM105 25h1v1H105ZM103 24h5v1H103ZM108 25h2v1H108ZM108 24h5v1H108ZM114 24h1v1H114ZM113 24h1v1H113ZM103 23h2v1H103ZM106 23h1v1H106ZM108 22h1v1H108ZM108 23h2v1H108ZM110 22h1v1H110ZM110 23h2v1H110ZM112 22h1v1H112ZM112 21h1v1H112ZM112 23h2v1H112ZM114 22h1v1H114ZM115 23h1v1H115ZM114 23h1v1H114ZM116 23h1v1H116Z" /><path d="M113 18h1v1H113ZM110 18h3v1H110ZM112 17h1v1H112ZM109 16h2v1H109ZM108 17h3v1H108ZM113 16h7v1H113ZM118 15h1v1H118ZM113 15h1v1H113ZM117 15h1v1H117ZM113 17h1v1H113ZM116 17h2v1H116ZM114 14h1v1H114ZM113 14h1v1H113ZM115 14h3v1H115ZM116 13h2v1H116ZM125 18h1v1H125ZM127 18h1v1H127ZM126 17h2v1H126ZM121 16h2v1H121ZM120 15h2v1H120ZM123 15h4v1H123ZM123 16h1v1H123ZM125 16h1v1H125ZM125 17h1v1H125ZM126 16h2v1H126ZM119 14h2v1H119ZM122 14h5v1H122ZM122 12h1v1H122ZM118 12h4v1H118ZM122 13h1v1H122ZM118 13h4v1H118ZM123 13h1v1H123ZM124 12h1v1H124ZM124 13h1v1H124ZM118 11h1v1H118ZM120 11h1v1H120Z" /><path d="M78 18H80V19H78Z" /><path d="M82 18H83V19H82Z" /><path d="M41 19V20H42V18H41Z" /><path d="M7 19H8V20H7Z" /><path d="M38 21V22H39V20H38Z" /><path d="M85 21H86V22H85Z" /><path d="M83 20H84V21H83Z" /><path d="M44 16H45V17H44Z" /><path d="M72 16H73V17H72Z" /><path d="M78 16H79V17H78Z" /><path d="M93 16V17H94V16H96V17H97V16H98V15H97V14H100V13H98V12H97V10H98V9H97V8H99V9H100V8H101V5H102V3H103V2H102V1H101V3H100V6H97V7H96V8H95V9H94V10H93V12H95V14H94V15H93Z" /><path d="M75 15H77V16H75Z" /><path d="M68 15H70V16H68Z" /><path d="M46 15H47V16H46Z" /><path d="M51 15H53V16H51Z" /><path d="M91 15V16H92V15H93V14H94V13H93V12H92V13H91V14Z" /><path d="M3 16H4V17H3Z" /><path d="M9 16H10V17H9Z" /><path d="M106 15H107V16H104V14H102V13H101V11H102V12H103V11H104V13H105V15Z" /><path d="M108 15H109V16H108Z" /><path d="M43 18H44V19H43Z" /><path d="M45 17H46V18H45Z" /><path d="M80 17H81V18H80Z" /><path d="M76 17H77V18H75V17Z" /><path d="M94 17H96V18H94Z" /><path d="M98 17H99V18H98Z" /><path d="M26 26H28V27H26Z" /><path d="M31 26H33V25H34V26H36V27H31Z" /><path d="M92 26H93V27H92Z" /><path d="M62 25H63V26H62Z" /><path d="M93 25H94V26H93Z" /><path d="M86 27H87V29H85V28H86Z" /><path d="M89 27H90V29H89V28Z" /><path d="M35 23H36V24H35Z" /><path d="M37 22H38V23H37Z" /><path d="M119 24H120V25H119Z" /><path d="M88 23H89V24H88Z" /><path d="M34 24H35V25H34Z" /><path d="M89 5H88V6H91V4H92V2H91V3H90V4H89Z" /><path d="M14 6H15V7H14Z" /><path d="M16 6V7H17V5H16Z" /><path d="M46 6V7H48V6H49V5H50V4H48V5H46Z" /><path d="M49 6H50V7H49Z" /><path d="M43 6H44V7H43Z" /><path d="M97 4H98V5H97Z" /><path d="M87 4H88V5H87Z" /><path d="M39 8V9H41V8H43V7H35V8H38Z" /><path d="M25 8H27V10H26V9H23V7H25Z" /><path d="M16 8H17V9H16Z" /><path d="M28 8H29V10H28V9Z" /><path d="M30 8H33V9H30Z" /><path d="M13 7H14V8H13Z" /><path d="M33 7H34V8H33Z" /><path d="M93 1H94V4H93V2Z" /><path d="M95 1H96V0H97V1H99V0H100V2H95Z" /><path d="M49 2H50V3H49Z" /><path d="M13 13H14V14H13Z" /><path d="M30 13H32V15H30V14Z" /><path d="M126 12H128V14H127V13H126Z" /><path d="M66 13H67V14H66Z" /><path d="M82 13H84V15H83V14H82Z" /><path d="M53 13H54V14H53Z" /><path d="M51 12H52V10H53V13H51Z" /><path d="M33 12H34V13H33Z" /><path d="M90 12H91V13H90Z" /><path d="M71 14H73V15H71Z" /><path d="M29 15H30V16H29Z" /><path d="M2 15H3V16H2Z" /><path d="M12 15V16H13V14H12Z" /><path d="M49 14H50V15H49Z" /><path d="M58 14H60V15H58Z" /><path d="M23 10H24V11H23Z" /><path d="M36 10H38V11H37V12H35V11H36Z" /><path d="M11 10H12V11H11Z" /><path d="M38 9H39V10H38Z" /><path d="M22 9H23V10H22Z" /><path d="M98 11V12H99V10H98Z" /><path d="M10 11H11V12H10Z" /><path d="M102 10H103V11H102Z" /><path d="M116 10H118V11H116Z" /><path d="M119 10H120V11H119Z" /><path d="M124 10H125V11H124Z" /><path d="M82 47H84V49H82V48Z" /><path d="M39 46h1v1H39ZM38 46h1v1H38ZM37 46h1v1H37ZM37 44h2v1H37ZM38 43h3v1H38ZM41 44h1v1H41ZM41 43h1v1H41ZM37 43h1v1H37ZM37 45h1v1H37ZM39 45h1v1H39ZM41 45h1v1H41Z" /><path d="M68 46V47H70V45H68Z" /><path d="M105 46H106V47H105Z" /><path d="M104 48H106V49H104Z" /><path d="M41 49H42V53H41V52H40V51H41V50Z" /><path d="M28 49H30V50H28Z" /><path d="M106 47H107V48H106Z" /><path d="M102 43V46H103V42H101V43Z" /><path d="M107 43V44H108V42H107Z" /><path d="M79 43V44H81V42H79Z" /><path d="M82 43H83V42H84V44H82Z" /><path d="M28 44H30V46H28V45Z" /><path d="M33 44H34V45H33Z" /><path d="M14 44H15V45H14Z" /><path d="M109 42H110V43H109Z" /><path d="M69 42H71V43H69Z" /><path d="M63 43H64V46H62V45H63V44Z" /><path d="M15 43H16V44H15Z" /><path d="M34 43H35V44H34Z" /><path d="M23 43H24V44H23Z" /><path d="M80 45H81V46H80Z" /><path d="M121 45H122V46H121Z" /><path d="M106 45H107V46H106Z" /><path d="M78 44H79V45H78Z" /><path d="M15 45H17V46H15Z" /><path d="M108 44H109V45H108Z" /><path d="M120 44H121V45H120Z" /><path d="M70 49H71V50H70Z" /><path d="M31 54H32V55H31Z" /><path d="M33 54H34V55H35V56H33V55Z" /><path d="M116 53V54H117V52H116Z" /><path d="M121 53H122V54H121Z" /><path d="M75 54H78V55H79V56H74V55H75Z" /><path d="M80 54H81V55H80Z" /><path d="M37 54H38V55H37Z" /><path d="M39 54V55H40V54H41V53H39Z" /><path d="M47 54h3v1H47ZM49 53h3v1H49ZM52 54h2v1H52ZM52 53h2v1H52ZM52 55h1v1H52ZM50 55h2v1H50ZM53 55h1v1H53Z" /><path d="M55 54H56V56H55V55Z" /><path d="M30 53H31V54H30Z" /><path d="M79 53H80V54H79Z" /><path d="M71 53H72V54H71Z" /><path d="M73 53H74V54H73Z" /><path d="M102 55H103V56H102Z" /><path d="M5 56V57H6V55H5Z" /><path d="M119 54H120V55H119Z" /><path d="M46 55H47V56H46Z" /><path d="M38 55H39V56H38Z" /><path d="M69 50H70V51H69Z" /><path d="M15 51H16V52H15Z" /><path d="M117 50H118V51H117Z" /><path d="M121 50H122V51H121Z" /><path d="M119 49H120V50H119Z" /><path d="M70 52H71V53H70Z" /><path d="M16 52H17V53H16Z" /><path d="M108 52H109V53H108Z" /><path d="M120 52H121V53H120Z" /><path d="M122 52V53H123V51H122Z" /><path d="M72 52H73V53H72Z" /><path d="M80 52H81V53H80Z" /><path d="M71 51H72V52H71Z" /><path d="M81 51H83V52H81Z" /><path d="M26 33H27V35H26V36H24V35H23V34H26Z" /><path d="M30 33H31V34H30Z" /><path d="M52 32H53V33H52Z" /><path d="M27 32H28V33H27Z" /><path d="M104 32H105V33H104Z" /><path d="M107 32H108V33H107Z" /><path d="M104 34H105V36H104V35Z" /><path d="M89 34H90V35H88V34Z" /><path d="M97 34H98V35H97Z" /><path d="M56 35H57V37H56V36Z" /><path d="M31 35H32V36H31V37H30V35Z" /><path d="M12 35V40H13V34H12Z" /><path d="M21 35H23V36H24V39H23V37H20V38H19V37H18V36H21Z" /><path d="M98 33H102V34H98Z" /><path d="M108 33H109V34H108Z" /><path d="M39 34H40V35H39Z" /><path d="M100 29H102V30H100Z" /><path d="M87 29H88V30H87Z" /><path d="M32 30H35V31H32Z" /><path d="M36 30H37V31H36Z" /><path d="M30 31H31V32H30Z" /><path d="M51 31H52V32H51Z" /><path d="M95 31H96V30H97V31H102V32H95Z" /><path d="M87 31H89V32H87Z" /><path d="M106 31H107V32H106Z" /><path d="M52 30H54V31H52Z" /><path d="M104 30H105V31H104Z" /><path d="M24 40V41H23V42H25V39H24Z" /><path d="M30 40H31V41H30Z" /><path d="M32 40H33V41H32Z" /><path d="M15 40V41H16V39H18V37H17V38H15V39Z" /><path d="M38 40H40V41H38Z" /><path d="M79 40H80V41H79Z" /><path d="M84 40H85V42H84V41Z" /><path d="M70 40H71V41H70Z" /><path d="M57 40V41H58V40H59V39H57Z" /><path d="M60 40H61V43H60V42H59V41H60Z" /><path d="M110 39V40H111V38H110Z" /><path d="M31 39H32V40H31Z" /><path d="M34 39H35V38H37V39H36V40H34Z" /><path d="M37 39H38V40H37Z" /><path d="M19 39H20V40H19Z" /><path d="M100 39H101V41H100V40Z" /><path d="M108 39H109V40H108Z" /><path d="M66 39H67V40H66Z" /><path d="M72 39V40H73V38H72Z" /><path d="M80 39H81V40H80Z" /><path d="M42 42V43H43V41H42Z" /><path d="M62 42H63V43H62Z" /><path d="M29 42H30V43H29Z" /><path d="M78 41H79V42H78Z" /><path d="M13 41H14V42H13Z" /><path d="M31 41H32V42H31Z" /><path d="M37 41H38V42H37Z" /><path d="M106 36V37H107V38H108V35H106Z" /><path d="M109 35H110V36H109Z" /><path d="M67 38H68V39H67Z" /><path d="M33 38H34V39H32V38Z" /><path d="M25 38H26V39H25Z" /><path d="M78 38H80V39H78Z" /><path d="M74 37H78V38H74Z" /><path d="M9 38H10V39H9Z" /></g><g fill="rgb(54,0,112)" stroke="none"><path d="M119 111H112V108H113V104H111V102H112V101H114V100H118V99H119V97H121V98H120V100H119V102H120V103H123V105H124V106H125V111H120Z" /><path d="M73 33h1v1H73ZM72 33h1v1H72ZM74 33h4v1H74ZM76 31h1v1H76ZM76 32h1v1H76ZM71 32h5v1H71ZM77 32h1v1H77ZM75 34h3v1H75ZM73 35h1v1H73ZM73 34h2v1H73ZM72 34h1v1H72ZM71 34h1v1H71ZM68 35h3v1H68ZM70 33h1v1H70ZM68 33h2v1H68ZM67 33h1v1H67ZM66 33h1v1H66ZM65 34h6v1H65ZM71 31h2v1H71ZM73 30h1v1H73ZM74 29h1v1H74ZM72 28h2v1H72ZM72 27h3v1H72ZM72 29h2v1H72ZM73 31h3v1H73ZM74 30h1v1H74ZM71 30h2v1H71ZM77 36h1v1H77ZM75 36h2v1H75ZM74 36h1v1H74ZM73 36h1v1H73ZM64 36h9v1H64ZM74 35h1v1H74ZM64 35h4v1H64ZM71 35h2v1H71ZM75 35h3v1H75ZM64 38h1v1H64ZM64 37h2v1H64ZM69 40h1v1H69ZM68 40h1v1H68ZM68 39h2v1H68ZM68 38h3v1H68ZM68 37h5v1H68Z" /><path d="M59 51h1v1H59ZM59 52h1v1H59ZM59 50h1v1H59ZM59 53h1v1H59ZM59 54h1v1H59ZM60 53h1v1H60ZM60 55h1v1H60ZM60 54h1v1H60ZM61 55h1v1H61ZM58 52h1v1H58ZM60 52h2v1H60ZM60 49h1v1H60ZM59 49h1v1H59ZM58 56h1v1H58ZM62 58h1v1H62ZM61 57h2v1H61ZM59 57h2v1H59ZM58 57h1v1H58ZM56 57h2v1H56ZM53 57h3v1H53ZM56 56h2v1H56ZM59 56h3v1H59ZM63 56h1v1H63ZM62 56h1v1H62ZM55 58h1v1H55ZM54 59h1v1H54ZM54 58h1v1H54ZM61 59h1v1H61ZM59 61h4v1H59ZM59 60h3v1H59ZM61 62h2v1H61ZM59 62h1v1H59ZM58 62h1v1H58ZM58 59h3v1H58ZM58 58h4v1H58ZM57 64h2v1H57ZM58 63h1v1H58ZM57 63h1v1H57ZM61 49h4v1H61ZM59 45h1v1H59ZM57 47h6v1H57ZM58 46h5v1H58ZM61 48h2v1H61ZM60 48h1v1H60ZM59 48h1v1H59ZM54 49h1v1H54ZM53 49h1v1H53ZM55 49h3v1H55ZM53 48h6v1H53ZM58 45h1v1H58ZM60 45h2v1H60ZM59 43h2v1H59ZM59 44h2v1H59ZM63 54h1v1H63ZM62 54h1v1H62ZM64 54h1v1H64ZM61 54h1v1H61ZM58 54h1v1H58ZM56 54h2v1H56ZM64 53h1v1H64ZM55 53h4v1H55ZM61 53h2v1H61ZM63 52h1v1H63ZM63 53h1v1H63ZM57 55h3v1H57ZM62 55h3v1H62ZM62 50h1v1H62ZM54 50h1v1H54ZM55 51h1v1H55ZM55 50h1v1H55ZM58 50h1v1H58ZM60 50h2v1H60ZM63 50h2v1H63ZM55 52h3v1H55ZM62 52h1v1H62ZM64 52h1v1H64ZM60 51h5v1H60ZM58 51h1v1H58ZM56 51h1v1H56ZM54 51h1v1H54Z" /><path d="M0 61V68H1V66H2V64H3V61H4V59H5V58H6V57H4V56H3V55H4V54H5V55H6V56H7V55H8V53H10V50H11V49H12V48H13V47H14V43H13V45H11V46H8V45H7V43H6V38H5V37H4V39H3V43H2V45H1V46H0V60Z" /><path d="M68 74V75H69V76H66V77H71V76H73V74H74V73H76V68H75V66H70V67H67V68H66V72H68V73H67V74Z" /><path d="M59 96V98H58V102H61V101H64V100H69V107H68V108H67V109H64V110H62V111H61V110H59V109H57V110H56V111H53V110H54V109H56V108H57V107H58V106H57V101H56V99H51V98H50V97H49V96H47V94H49V92H48V91H46V92H45V93H44V92H38V91H37V88H36V86H38V87H41V88H43V89H47V90H51V91H60V93H59V94H60V96Z" /><path d="M123 40h2v1H123ZM124 41h1v1H124ZM124 39h1v1H124ZM124 42h1v1H124ZM124 43h1v1H124ZM122 42h1v1H122ZM122 43h1v1H122ZM123 42h1v1H123ZM123 44h1v1H123ZM123 45h1v1H123ZM123 43h1v1H123ZM123 46h1v1H123ZM121 46h2v1H121ZM120 46h1v1H120ZM119 48h4v1H119ZM119 47h4v1H119ZM119 43h1v1H119ZM119 42h3v1H119ZM122 45h1v1H122ZM119 45h1v1H119ZM119 44h1v1H119ZM122 44h1v1H122ZM120 49h2v1H120ZM120 39h4v1H120ZM123 41h1v1H123ZM121 41h2v1H121ZM122 40h1v1H122ZM120 40h2v1H120ZM120 38h5v1H120ZM121 37h1v1H121ZM120 37h1v1H120ZM119 36h1v1H119ZM119 35h1v1H119ZM119 37h1v1H119Z" /><path d="M85 106V107H86V106H87V100H81V99H80V98H79V97H77V100H79V102H80V103H82V104H85V105Z" /><path d="M46 7H49V8H53V9H52V10H51V11H50V10H49V9H47V8H46Z" /><path d="M11 99H13V100H11Z" /><path d="M86 50V52H87V53H88V54H89V53H90V49H91V47H93V46H94V42H93V43H91V44H90V45H89V43H88V42H87V43H84V50H85V49H86Z" /><path d="M122 70H123V71H124V73H123V72H121V71H120V70H119V68H118V66H117V64H116V62H119V65H120V67H121V68H122V69Z" /><path d="M60 81V80H57V83H56V84H54V86H55V87H52V88H57V87H58V86H59V85H62V83H64V85H65V82H62V81H61Z" /><path d="M53 9H55V10H56V11H54V10H53Z" /><path d="M108 81H109V82H108V83H107V84H106V85H108V84H109V86H107V87H106V86H105V87H104V84H105V82H104V79H103V77H105V76H106V75H107V79H108V80Z" /><path d="M118 53V54H119V53H120V50H118V52Z" /><path d="M119 58V60H118V59H116V57H118V56H119V57H120V58Z" /><path d="M109 3H111V6H112V8H113V9H114V11H113V13H112V14H111V11H110V10H109V8H108V7H109V4Z" /><path d="M12 7V6H13V5H14V4H11V5H9V6H8V8H7V9H6V16H7V15H8V12H9V9H11V8H12V9H14V8H13V7Z" /><path d="M74 43V44H75V45H76V46H77V47H80V46H78V44H79V43H78V40H77V39H73V42H74Z" /><path d="M14 5H16V7H15V6H14Z" /><path d="M91 106V108H94V104H93V103H91V102H90V106Z" /><path d="M50 38H52V39H54V40H53V42H52V41H50V39H48V38H46V37H45V36H48V37H50Z" /><path d="M68 12H69V9H70V10H71V13H68Z" /><path d="M18 83H20V85H19V86H18V84Z" /><path d="M33 14H35V13H36V12H38V13H37V14H38V15H35V16H34V15H33Z" /><path d="M61 72H62V73H61Z" /><path d="M127 39H128V40H127Z" /><path d="M106 48H107V49H106Z" /><path d="M104 89V90H106V88H104Z" /><path d="M17 41H18V40H19V41H20V40H23V42H22V43H20V42H19V43H16V42H17Z" /><path d="M110 0H111V2H110V1Z" /><path d="M73 78H74V79H66V78H72Z" /><path d="M60 73H61V74H60Z" /><path d="M50 76H51V77H50Z" /><path d="M55 76H62V77H55Z" /><path d="M83 77H84V78H83Z" /><path d="M74 77H75V78H74Z" /><path d="M62 77H64V78H62Z" /><path d="M46 61H47V62H46Z" /><path d="M44 61H45V62H44Z" /><path d="M86 62H87V63H86V65H85V62Z" /><path d="M45 62H46V63H45Z" /><path d="M46 58H47V59H46Z" /><path d="M51 65H53V66H51Z" /><path d="M121 96H122V97H121Z" /><path d="M122 95H123V96H122Z" /><path d="M62 85H64V86H62Z" /><path d="M65 85H66V86H65Z" /><path d="M33 19H34V22H31V21H32V20H33Z" /><path d="M120 25H123V26H124V27H123V28H122V31H121V32H120V33H118V31H119V30H118V28H119V26H120Z" /><path d="M30 23V24H31V22H30Z" /><path d="M32 6V7H35V4H32V5Z" /><path d="M36 6H37V7H36Z" /><path d="M76 5H77V7H76V6Z" /><path d="M75 7H76V8H77V9H74V8H75Z" /><path d="M54 12H56V13H54Z" /><path d="M72 9H73V10H72Z" /><path d="M108 10H109V11H108Z" /><path d="M26 47V48H28V43H26V42H25V45H26V46Z" /><path d="M81 47V49H80V50H82V45H81V46Z" /><path d="M103 46V47H105V46H106V44H107V42H106V43H104V41H103V45Z" /><path d="M108 46V47H109V46H110V44H109V45H108Z" /><path d="M110 46H111V47H110Z" /><path d="M117 48H118V50H117V49Z" /><path d="M108 48H109V50H108V49Z" /><path d="M107 47H108V48H107Z" /><path d="M65 43V44H66V43H67V40H64V41H63V42H64V43Z" /><path d="M104 50H105V51H104Z" /><path d="M105 49H106V50H105Z" /><path d="M104 52H105V53H104Z" /><path d="M116 51H117V52H116Z" /><path d="M40 35H44V38H43V39H44V41H43V40H39V36H40Z" /><path d="M56 39H57V40H56Z" /><path d="M78 39H79V40H78Z" /><path d="M58 42H59V43H58Z" /><path d="M102 40H103V41H102Z" /><path d="M104 36H105V37H106V39H105V38H103V37H104Z" /><path d="M127 35H128V36H127Z" /><path d="M79 37H80V38H79Z" /></g></svg>